<svg width="300" height="234" viewBox="0 0 300 234" fill="none" xmlns="http://www.w3.org/2000/svg">
<g clip-path="url(#clip0)">
<g opacity="0.8">
<path opacity="0.8" d="M273.693 221.295H15.5216V54.3137C15.5216 52.917 16.0765 51.5776 17.064 50.59C18.0516 49.6024 19.3911 49.0476 20.7877 49.0476H268.427C269.824 49.0476 271.163 49.6024 272.151 50.59C273.138 51.5776 273.693 52.917 273.693 54.3137V221.295Z" fill="url(#paint0_linear)"/>
</g>
<path d="M24.3306 52.0806H264.867C266.264 52.0806 267.603 52.6354 268.591 53.623C269.578 54.6105 270.133 55.95 270.133 57.3466V221.295H19.0779V57.35C19.077 55.9551 19.6296 54.6168 20.6144 53.6289C21.5992 52.6409 22.9357 52.0841 24.3306 52.0806Z" fill="white"/>
<path d="M262.051 61.926H27.1603V215.992H262.051V61.926Z" fill="#F5F5F5"/>
<path opacity="0.8" d="M261.954 69.4053H28.0602V208.017H261.954V69.4053Z" fill="#E0E0E0"/>
<path d="M261.954 62.0396H28.0602V69.4054H261.954V62.0396Z" fill="#F5F5F5"/>
<path d="M33.0763 67.3989C34.063 67.3989 34.8628 66.599 34.8628 65.6124C34.8628 64.6258 34.063 63.8259 33.0763 63.8259C32.0897 63.8259 31.2899 64.6258 31.2899 65.6124C31.2899 66.599 32.0897 67.3989 33.0763 67.3989Z" fill="#FF5252"/>
<path d="M37.9858 67.3989C38.9724 67.3989 39.7723 66.599 39.7723 65.6124C39.7723 64.6258 38.9724 63.8259 37.9858 63.8259C36.9991 63.8259 36.1993 64.6258 36.1993 65.6124C36.1993 66.599 36.9991 67.3989 37.9858 67.3989Z" fill="#FFFF00"/>
<path d="M42.8986 67.3989C43.8852 67.3989 44.6851 66.599 44.6851 65.6124C44.6851 64.6258 43.8852 63.8259 42.8986 63.8259C41.912 63.8259 41.1121 64.6258 41.1121 65.6124C41.1121 66.599 41.912 67.3989 42.8986 67.3989Z" fill="#69F0AE"/>
<g opacity="0.8">
<path opacity="0.8" d="M280.915 232.367C266.544 233.457 19.7378 233.034 11.1154 232.367C-0.189967 226.918 0.0166755 205.774 0.0166755 205.774L113.204 205.017L113.584 211.453H162.019L163.912 205.787H289.345C289.345 205.787 291.838 225.171 280.915 232.367Z" fill="url(#paint1_linear)"/>
</g>
<path d="M287.508 207.477H164.522C164.995 208.025 165.302 208.697 165.404 209.414C165.506 210.132 165.399 210.863 165.097 211.521C164.795 212.18 164.31 212.737 163.7 213.128C163.089 213.518 162.38 213.724 161.655 213.723H114.701C113.976 213.724 113.267 213.518 112.656 213.128C112.046 212.737 111.561 212.18 111.259 211.521C110.957 210.863 110.85 210.132 110.952 209.414C111.054 208.697 111.36 208.025 111.834 207.477H1.70315C1.70315 207.477 1.51317 225.838 12.6819 230.584C21.1977 231.151 264.987 231.531 279.182 230.584C289.984 224.321 287.508 207.477 287.508 207.477Z" fill="#F5F5F5"/>
<path d="M27.257 212.966C28.0927 212.966 28.7701 212.289 28.7701 211.453C28.7701 210.617 28.0927 209.94 27.257 209.94C26.4213 209.94 25.7438 210.617 25.7438 211.453C25.7438 212.289 26.4213 212.966 27.257 212.966Z" fill="#E0E0E0"/>
<path d="M31.7998 212.966C32.6355 212.966 33.313 212.289 33.313 211.453C33.313 210.617 32.6355 209.94 31.7998 209.94C30.9641 209.94 30.2866 210.617 30.2866 211.453C30.2866 212.289 30.9641 212.966 31.7998 212.966Z" fill="#E0E0E0"/>
<path d="M36.3393 212.966C37.175 212.966 37.8525 212.289 37.8525 211.453C37.8525 210.617 37.175 209.94 36.3393 209.94C35.5036 209.94 34.8261 210.617 34.8261 211.453C34.8261 212.289 35.5036 212.966 36.3393 212.966Z" fill="#E0E0E0"/>
<path d="M139.944 126.099H150.673C163.004 126.099 174.831 130.997 183.55 139.717C192.27 148.436 197.168 160.263 197.168 172.594V206.393H93.4496V172.594C93.4496 160.263 98.3482 148.436 107.068 139.717C115.787 130.997 127.613 126.099 139.944 126.099Z" fill="#00BAFC"/>
<path d="M145.411 108.021C171.59 108.021 192.812 86.7987 192.812 60.6197C192.812 34.4406 171.59 13.2183 145.411 13.2183C119.231 13.2183 98.0091 34.4406 98.0091 60.6197C98.0091 86.7987 119.231 108.021 145.411 108.021Z" fill="#333333"/>
<path opacity="0.1" d="M138.431 112.294H152.14C154.703 112.294 157.162 113.312 158.974 115.125C160.787 116.938 161.805 119.396 161.805 121.96V131.379C161.805 135.298 160.248 139.057 157.477 141.828C154.705 144.6 150.946 146.157 147.027 146.157H143.531C139.611 146.157 135.852 144.6 133.081 141.828C130.309 139.057 128.752 135.298 128.752 131.379V121.973C128.752 119.409 129.771 116.951 131.583 115.138C133.396 113.326 135.854 112.307 138.418 112.307L138.431 112.294Z" fill="black"/>
<path d="M128.752 111.327H161.822V130.425C161.822 134.345 160.265 138.104 157.494 140.875C154.722 143.647 150.963 145.204 147.044 145.204H143.531C139.611 145.204 135.852 143.647 133.081 140.875C130.309 138.104 128.752 134.345 128.752 130.425V111.327Z" fill="#FDB797"/>
<path opacity="0.1" d="M128.812 116.097C139.47 120.078 151.202 120.11 161.882 116.187V112.127H128.812V116.097Z" fill="black"/>
<path d="M145.411 118.31C171.59 118.31 192.812 97.0876 192.812 70.9085C192.812 44.7294 171.59 23.5071 145.411 23.5071C119.231 23.5071 98.0091 44.7294 98.0091 70.9085C98.0091 97.0876 119.231 118.31 145.411 118.31Z" fill="#FDB797"/>
<path opacity="0.1" d="M100.092 54.1304H190.482C190.482 54.1304 182.766 17.6311 148.593 19.9409C114.421 22.2506 100.092 54.1304 100.092 54.1304Z" fill="black"/>
<path d="M100.092 52.9038H190.482C190.482 52.9038 182.766 16.4045 148.593 18.7309C114.421 21.0573 100.092 52.9038 100.092 52.9038Z" fill="#333333"/>
<path d="M98.989 77.1578C101.424 77.1578 103.398 73.4556 103.398 68.8887C103.398 64.3218 101.424 60.6196 98.989 60.6196C96.5537 60.6196 94.5795 64.3218 94.5795 68.8887C94.5795 73.4556 96.5537 77.1578 98.989 77.1578Z" fill="#FDB797"/>
<path d="M191.585 77.1578C194.021 77.1578 195.995 73.4556 195.995 68.8887C195.995 64.3218 194.021 60.6196 191.585 60.6196C189.15 60.6196 187.176 64.3218 187.176 68.8887C187.176 73.4556 189.15 77.1578 191.585 77.1578Z" fill="#FDB797"/>
<path d="M107.108 28.7198C108.191 25.1802 110.161 21.7973 113.201 19.6875C115.51 18.0843 118.274 17.3144 120.923 16.3745C124.844 14.9853 128.606 13.1855 132.149 11.0051C136.168 8.52874 139.944 5.54573 144.371 3.90925C151.986 1.09289 160.469 2.61606 168.331 4.63583C170.268 5.13245 172.228 5.67239 173.934 6.71894C175.91 7.9288 177.427 9.7486 178.907 11.5317L191.385 26.5834C192.529 27.9599 193.678 29.3531 194.485 30.9529C195.237 32.5025 195.718 34.17 195.905 35.8824C196.238 38.6421 195.978 41.5684 194.572 43.9715C192.462 47.5744 188.112 49.3842 183.943 49.5508C179.773 49.7175 175.68 48.5076 171.674 47.3344C158.756 43.5515 145.677 40.0252 132.279 38.4554C125.629 37.6349 118.919 37.4173 112.231 37.8055C110.131 37.9421 107.358 38.9054 106.082 36.7656C104.978 34.9091 106.538 30.5796 107.108 28.7198Z" fill="#333333"/>
<path opacity="0.05" d="M113.754 169.591V206.393" stroke="black" stroke-width="4" stroke-miterlimit="10"/>
<path opacity="0.05" d="M177.694 169.591V206.393" stroke="black" stroke-width="4" stroke-miterlimit="10"/>
<g opacity="0.8">
<path opacity="0.8" d="M300 66.9789H240.52L220.445 83.717V66.9789H207.064V0.82959H300V66.9789Z" fill="url(#paint2_linear)"/>
</g>
<path d="M298.74 1.61621H208.324V64.8725H298.74V1.61621Z" fill="white"/>
<path d="M290.148 10.915H218.506V12.7948H290.148V10.915Z" fill="#E0E0E0"/>
<path d="M267.76 19.3809H218.506V21.2607H267.76V19.3809Z" fill="#E0E0E0"/>
<path d="M277.613 27.8433H218.506V29.7231H277.613V27.8433Z" fill="#E0E0E0"/>
<path d="M265.97 36.3091H218.506V38.1889H265.97V36.3091Z" fill="#00BAFC"/>
<path d="M290.148 44.7712H218.506V46.651H290.148V44.7712Z" fill="#00BAFC"/>
<path d="M290.148 53.2371H218.506V55.1168H290.148V53.2371Z" fill="#E0E0E0"/>
<path d="M223.792 63.6426V80.3741L242.193 61.9695L223.792 63.6426Z" fill="white"/>
</g>
<defs>
<linearGradient id="paint0_linear" x1="144.607" y1="221.295" x2="144.607" y2="49.0543" gradientUnits="userSpaceOnUse">
<stop stop-color="#808080" stop-opacity="0.25"/>
<stop offset="0.54" stop-color="#808080" stop-opacity="0.12"/>
<stop offset="1" stop-color="#808080" stop-opacity="0.1"/>
</linearGradient>
<linearGradient id="paint1_linear" x1="169221" y1="22573.1" x2="169221" y2="20218.2" gradientUnits="userSpaceOnUse">
<stop stop-color="#808080" stop-opacity="0.25"/>
<stop offset="0.54" stop-color="#808080" stop-opacity="0.12"/>
<stop offset="1" stop-color="#808080" stop-opacity="0.1"/>
</linearGradient>
<linearGradient id="paint2_linear" x1="70901.9" y1="20614.1" x2="70901.9" y2="0.82959" gradientUnits="userSpaceOnUse">
<stop stop-color="#808080" stop-opacity="0.25"/>
<stop offset="0.54" stop-color="#808080" stop-opacity="0.12"/>
<stop offset="1" stop-color="#808080" stop-opacity="0.1"/>
</linearGradient>
<clipPath id="clip0">
<rect width="300" height="232.198" fill="white" transform="translate(0 0.82959)"/>
</clipPath>
</defs>
</svg>
