<svg width="300" height="260" viewBox="0 0 300 260" fill="none" xmlns="http://www.w3.org/2000/svg">
<g clip-path="url(#clip0)">
<path d="M163.752 72.9132C179.008 72.9132 191.375 60.5458 191.375 45.2898C191.375 30.0338 179.008 17.6664 163.752 17.6664C148.496 17.6664 136.128 30.0338 136.128 45.2898C136.128 60.5458 148.496 72.9132 163.752 72.9132Z" fill="#A0616A"/>
<path d="M143.134 59.1016C143.134 59.1016 148.338 98.3349 140.332 102.739C132.325 107.142 187.972 107.543 187.972 107.543C187.972 107.543 175.562 73.5138 181.166 63.1049L143.134 59.1016Z" fill="#A0616A"/>
<path d="M228.606 107.741L223.978 128.815L214.193 173.4L213.9 175.842L210.523 204.109L208.276 222.887L206.77 235.502C197.612 240.208 190.974 243.458 190.974 243.458C190.974 243.458 190.403 240.595 189.483 236.933C183.055 238.86 171.163 242.057 161.084 242.695C164.754 246.786 166.441 250.629 164.153 253.465C157.249 262.015 128.745 244.104 118.775 237.425C118.543 239.024 118.455 240.641 118.512 242.256L110.883 236.388L111.638 222.887L112.911 200.044L114.512 171.398C114.007 170.171 113.584 168.912 113.246 167.63C110.909 159.321 108.073 142.729 105.898 128.815C104.148 117.617 102.833 108.154 102.555 106.141C102.517 105.878 102.499 105.743 102.499 105.743L144.732 87.0806C147.734 94.0413 161.749 96.1336 161.749 96.1336C173.36 95.3335 182.462 89.2105 182.462 89.2105L228.606 107.741Z" fill="#D0CDE1"/>
<path d="M194.178 235.453C194.178 235.453 192.39 236.065 189.483 236.933C183.055 238.86 171.163 242.056 161.084 242.695C152.407 243.251 145.074 241.914 143.733 236.253C143.158 233.819 143.973 231.816 145.75 230.171C151.054 225.254 164.908 223.492 175.896 222.887C178.998 222.718 181.868 222.639 184.258 222.609C188.314 222.557 190.974 222.639 190.974 222.639L191.038 222.887L194.178 235.453Z" fill="#A0616A"/>
<path d="M140.771 19.1605L135.607 17.0928C135.607 17.0928 146.406 5.20336 161.431 6.23727L157.205 1.58483C157.205 1.58483 167.535 -2.55058 176.926 8.30495C181.862 14.0115 187.574 20.7192 191.134 28.2753H196.666L194.357 33.3585L202.437 38.4416L194.144 37.5286C194.638 40.3122 194.714 43.154 194.369 45.9599C194.013 48.7668 192.581 51.3256 190.374 53.0964C190.374 53.0964 183.969 39.8378 183.969 37.77V42.9394C183.969 42.9394 178.804 38.287 178.804 35.1854L175.987 38.8039L174.578 33.1177L157.205 38.8039L160.022 34.1516L149.223 35.7024L153.449 30.0161C153.449 30.0161 141.241 36.7362 140.771 42.4225C140.302 48.1087 136.729 53.4968 136.729 53.4968C136.729 53.4968 127.155 26.9145 140.771 19.1605Z" fill="#2F2E41"/>
<path d="M258.631 204.623C255.818 207.674 248.846 212.268 240.394 217.241C237.25 219.09 233.903 220.994 230.488 222.887C222.34 227.406 213.809 231.884 206.77 235.501C197.612 240.208 190.974 243.458 190.974 243.458C190.974 243.458 190.403 240.595 189.483 236.933C188.251 232.03 186.395 225.693 184.46 222.887C184.393 222.79 184.325 222.7 184.258 222.609C183.694 221.869 183.127 221.437 182.567 221.437L210.523 204.109L222.603 196.618L213.9 175.842L202.983 149.779L209.572 128.815L216.195 107.741H228.606C228.606 107.741 232.716 116.711 237.971 129.22C238.756 131.091 239.567 133.041 240.394 135.054C251.205 161.349 264.683 198.068 258.631 204.623Z" fill="#D0CDE1"/>
<path d="M164.153 253.465C157.249 262.015 128.745 244.104 118.775 237.425C116.604 235.971 115.312 235.051 115.312 235.051L124.432 222.887L127.321 219.037C127.321 219.037 129.906 220.408 133.726 222.639C133.865 222.722 134.004 222.805 134.147 222.887C137.441 224.822 141.577 227.35 145.75 230.171C151.509 234.067 157.331 238.51 161.084 242.695C164.754 246.786 166.441 250.629 164.153 253.465Z" fill="#A0616A"/>
<path d="M133.726 222.64C132.706 222.636 131.688 222.719 130.683 222.887C122.047 224.371 119.5 232.188 118.775 237.425C118.543 239.024 118.455 240.641 118.512 242.256L110.883 236.388L108.103 234.251C101.413 231.918 95.4514 227.775 90.2825 222.887C85.7984 218.573 81.7761 213.803 78.2806 208.654C74.7991 203.58 71.6954 198.257 68.9947 192.727C68.2411 191.184 67.8361 189.494 67.8082 187.777C67.7802 186.06 68.1302 184.358 68.8332 182.791L78.2806 161.736L92.0893 130.963C92.1908 130.231 92.3022 129.515 92.4236 128.815C95.1621 113.113 102.498 106.141 102.498 106.141H108.103L111.852 128.815L116.51 156.984L113.246 167.63L105.703 192.216L112.911 200.045L133.726 222.64Z" fill="#D0CDE1"/>
<path d="M140.069 157.007L144.86 162.597C146.64 162.257 148.499 161.858 150.414 161.41L149.038 157.007L152.403 160.932C172.687 155.944 197.828 146.244 197.828 146.244C197.828 146.244 170.685 148.234 150.419 143.807C141.452 141.848 132.226 146.293 128.546 154.701C126.408 159.589 126.743 163.823 134.329 163.823C136.892 163.779 139.448 163.539 141.974 163.104L140.069 157.007Z" fill="#00BAFC"/>
<path d="M249.297 248.882V251.162C249.298 251.788 249.182 252.408 248.955 252.992C248.854 253.251 248.732 253.503 248.59 253.743C248.143 254.494 247.507 255.116 246.747 255.548C245.986 255.98 245.126 256.207 244.252 256.207H76.5076C75.6329 256.207 74.7731 255.98 74.0125 255.548C73.2519 255.116 72.6166 254.494 72.1689 253.743C72.0273 253.503 71.9054 253.251 71.8046 252.992C71.5774 252.408 71.4614 251.788 71.4627 251.162V248.882C71.4625 248.219 71.5929 247.563 71.8464 246.951C72.0999 246.339 72.4715 245.783 72.94 245.314C73.4084 244.846 73.9647 244.474 74.5768 244.221C75.189 243.967 75.8451 243.837 76.5076 243.837H86.1767V242.774C86.1767 242.746 86.1821 242.719 86.1926 242.693C86.2032 242.668 86.2187 242.645 86.2382 242.625C86.2578 242.606 86.281 242.59 86.3065 242.58C86.3321 242.569 86.3594 242.564 86.3871 242.564H91.432C91.4596 242.564 91.487 242.569 91.5125 242.58C91.5381 242.59 91.5613 242.606 91.5808 242.625C91.6004 242.645 91.6159 242.668 91.6264 242.693C91.637 242.719 91.6424 242.746 91.6423 242.774V243.837H94.794V242.774C94.7939 242.746 94.7994 242.719 94.8099 242.693C94.8205 242.668 94.836 242.645 94.8555 242.625C94.875 242.606 94.8983 242.59 94.9238 242.58C94.9493 242.569 94.9767 242.564 95.0044 242.564H100.049C100.077 242.564 100.104 242.569 100.13 242.58C100.155 242.59 100.179 242.606 100.198 242.625C100.218 242.645 100.233 242.668 100.244 242.693C100.254 242.719 100.26 242.746 100.26 242.774V243.837H103.415V242.774C103.415 242.746 103.42 242.719 103.431 242.693C103.442 242.668 103.457 242.645 103.477 242.625C103.496 242.606 103.519 242.59 103.545 242.58C103.57 242.569 103.598 242.564 103.625 242.564H108.67C108.698 242.564 108.725 242.569 108.751 242.58C108.776 242.59 108.8 242.606 108.819 242.625C108.839 242.645 108.854 242.668 108.865 242.693C108.875 242.719 108.881 242.746 108.881 242.774V243.837H112.032V242.774C112.032 242.746 112.038 242.719 112.048 242.693C112.059 242.668 112.074 242.645 112.094 242.625C112.113 242.606 112.137 242.59 112.162 242.58C112.188 242.569 112.215 242.564 112.243 242.564H117.288C117.315 242.564 117.343 242.569 117.368 242.58C117.394 242.59 117.417 242.606 117.436 242.625C117.456 242.645 117.471 242.668 117.482 242.693C117.493 242.719 117.498 242.746 117.498 242.774V243.837H120.65V242.774C120.65 242.746 120.655 242.719 120.666 242.693C120.676 242.668 120.692 242.645 120.711 242.625C120.731 242.606 120.754 242.59 120.779 242.58C120.805 242.569 120.832 242.564 120.86 242.564H125.905C125.933 242.564 125.96 242.569 125.985 242.58C126.011 242.59 126.034 242.606 126.054 242.625C126.073 242.645 126.089 242.668 126.099 242.693C126.11 242.719 126.115 242.746 126.115 242.774V243.837H129.271V242.774C129.271 242.746 129.276 242.719 129.287 242.693C129.297 242.668 129.313 242.645 129.332 242.625C129.352 242.606 129.375 242.59 129.4 242.58C129.426 242.569 129.453 242.564 129.481 242.564H134.526C134.554 242.564 134.581 242.569 134.606 242.58C134.632 242.59 134.655 242.606 134.675 242.625C134.694 242.645 134.71 242.668 134.72 242.693C134.731 242.719 134.736 242.746 134.736 242.774V243.837H137.888V242.774C137.888 242.746 137.893 242.719 137.904 242.693C137.914 242.668 137.93 242.645 137.949 242.625C137.969 242.606 137.992 242.59 138.018 242.58C138.043 242.569 138.071 242.564 138.098 242.564H177.616C177.644 242.564 177.671 242.569 177.697 242.58C177.722 242.59 177.745 242.606 177.765 242.625C177.785 242.645 177.8 242.668 177.811 242.693C177.821 242.719 177.827 242.746 177.826 242.774V243.837H180.982V242.774C180.982 242.746 180.987 242.719 180.998 242.693C181.008 242.668 181.024 242.645 181.043 242.625C181.063 242.606 181.086 242.59 181.112 242.58C181.137 242.569 181.165 242.564 181.192 242.564H186.237C186.293 242.564 186.346 242.586 186.385 242.626C186.425 242.665 186.447 242.718 186.448 242.774V243.837H189.599V242.774C189.599 242.746 189.605 242.719 189.615 242.693C189.626 242.668 189.641 242.645 189.661 242.625C189.68 242.606 189.703 242.59 189.729 242.58C189.755 242.569 189.782 242.564 189.81 242.564H194.854C194.882 242.564 194.91 242.569 194.935 242.58C194.961 242.59 194.984 242.606 195.003 242.625C195.023 242.645 195.038 242.668 195.049 242.693C195.059 242.719 195.065 242.746 195.065 242.774V243.837H198.217V242.774C198.216 242.746 198.222 242.719 198.232 242.693C198.243 242.668 198.258 242.645 198.278 242.625C198.298 242.606 198.321 242.59 198.346 242.58C198.372 242.569 198.399 242.564 198.427 242.564H203.472C203.499 242.564 203.527 242.569 203.552 242.58C203.578 242.59 203.601 242.606 203.621 242.625C203.64 242.645 203.656 242.668 203.666 242.693C203.677 242.719 203.682 242.746 203.682 242.774V243.837H206.838V242.774C206.838 242.746 206.843 242.719 206.853 242.693C206.864 242.668 206.88 242.645 206.899 242.625C206.919 242.606 206.942 242.59 206.967 242.58C206.993 242.569 207.02 242.564 207.048 242.564H212.093C212.148 242.564 212.201 242.587 212.239 242.626C212.278 242.666 212.3 242.719 212.299 242.774V243.837H215.455V242.774C215.455 242.746 215.46 242.719 215.471 242.693C215.481 242.668 215.497 242.645 215.516 242.625C215.536 242.606 215.559 242.59 215.585 242.58C215.61 242.569 215.638 242.564 215.665 242.564H220.71C220.738 242.564 220.765 242.569 220.791 242.58C220.816 242.59 220.839 242.606 220.859 242.625C220.879 242.645 220.894 242.668 220.905 242.693C220.915 242.719 220.921 242.746 220.92 242.774V243.837H224.072V242.774C224.072 242.746 224.078 242.719 224.088 242.693C224.099 242.668 224.114 242.645 224.134 242.625C224.153 242.606 224.176 242.59 224.202 242.58C224.227 242.569 224.255 242.564 224.282 242.564H229.327C229.355 242.564 229.382 242.569 229.408 242.58C229.434 242.59 229.457 242.606 229.476 242.625C229.496 242.645 229.511 242.668 229.522 242.693C229.532 242.719 229.538 242.746 229.538 242.774V243.837H244.252C244.914 243.837 245.57 243.967 246.183 244.221C246.795 244.474 247.351 244.846 247.819 245.314C248.288 245.783 248.66 246.339 248.913 246.951C249.166 247.563 249.297 248.219 249.297 248.882Z" fill="#3F3D56"/>
<path d="M298.074 252.991H22.7266V253.743H298.074V252.991Z" fill="#3F3D56"/>
<path d="M235.79 152.856H173.267V151.568H144.916V152.856H82.135C81.0134 152.856 79.9376 153.302 79.1445 154.095C78.3514 154.888 77.9058 155.964 77.9058 157.085V242.699C77.9058 243.821 78.3514 244.896 79.1445 245.69C79.9376 246.483 81.0134 246.928 82.135 246.928H235.79C236.912 246.928 237.987 246.483 238.781 245.69C239.574 244.896 240.019 243.821 240.019 242.699V157.085C240.019 156.53 239.91 155.98 239.697 155.467C239.485 154.954 239.173 154.488 238.781 154.095C238.388 153.702 237.922 153.391 237.409 153.178C236.895 152.966 236.345 152.856 235.79 152.856Z" fill="#3F3D56"/>
<path d="M159.086 192.137C164.272 192.137 168.477 187.933 168.477 182.746C168.477 177.559 164.272 173.355 159.086 173.355C153.899 173.355 149.694 177.559 149.694 182.746C149.694 187.933 153.899 192.137 159.086 192.137Z" stroke="#D0CDE1" stroke-width="2" stroke-miterlimit="10"/>
<path d="M156.08 195.518C161.267 195.518 165.472 191.313 165.472 186.127C165.472 180.94 161.267 176.736 156.08 176.736C150.894 176.736 146.689 180.94 146.689 186.127C146.689 191.313 150.894 195.518 156.08 195.518Z" fill="#D0CDE1"/>
<path d="M40.7372 249.196H30.2191V259.714H40.7372V249.196Z" fill="#D0CDE1"/>
<path d="M34.3527 240.932V253.704H47.1246V240.932H34.3527ZM46.5687 253.148H34.9049V241.488H46.5687V253.148Z" fill="#3F3D56"/>
<path d="M284.155 249.196H273.637V259.714H284.155V249.196Z" fill="#D0CDE1"/>
<path d="M277.77 240.932V253.704H290.542V240.932H277.77ZM289.986 253.148H278.323V241.488H289.986V253.148Z" fill="#3F3D56"/>
<path d="M35.5285 87.2524C51.9887 87.2524 65.3323 73.9088 65.3323 57.4486C65.3323 40.9884 51.9887 27.6448 35.5285 27.6448C19.0683 27.6448 5.7247 40.9884 5.7247 57.4486C5.7247 73.9088 19.0683 87.2524 35.5285 87.2524Z" fill="#00BAFC"/>
<path d="M45.9147 22.0317C43.2161 21.6885 40.4849 21.6885 37.7864 22.0317C31.7744 22.8211 26.115 25.3185 21.4798 29.2278C16.8446 33.137 13.4282 38.2939 11.6358 44.0865C10.8207 46.7264 10.359 49.4626 10.263 52.2238C10.2495 52.6077 10.2404 52.996 10.2404 53.3844C10.2488 61.7653 13.5819 69.8006 19.5081 75.7268C25.4343 81.6531 33.4696 84.9861 41.8506 84.9945C42.5234 84.9945 43.1962 84.9719 43.8601 84.9312C45.4183 84.8335 46.967 84.6191 48.4932 84.29C55.7814 82.7227 62.2813 78.6303 66.8449 72.7356C71.4084 66.8408 73.742 59.523 73.4336 52.0745C73.1251 44.6261 70.1943 37.5263 65.159 32.0291C60.1236 26.5319 53.3075 22.9909 45.9147 22.0317H45.9147ZM51.7445 82.4566H51.74C49.1942 83.3254 46.5444 83.8523 43.86 84.0236C43.1962 84.0688 42.5234 84.0913 41.8505 84.0913C33.7096 84.0814 25.9049 80.843 20.1484 75.0865C14.3919 69.33 11.1535 61.5253 11.1436 53.3844C11.1436 52.996 11.1526 52.6077 11.1661 52.2238C11.4766 44.2901 14.8439 36.7839 20.5633 31.2766C26.2827 25.7694 33.9107 22.688 41.8505 22.6774C49.1254 22.6778 56.1639 25.2609 61.712 29.9665C67.2601 34.6721 70.9574 41.1945 72.1453 48.3718C73.3332 55.549 71.9345 62.9149 68.1983 69.1571C64.4622 75.3993 58.6313 80.1124 51.7445 82.4566H51.7445Z" fill="#3F3D56"/>
<path d="M42.3021 24.4836H41.3989V30.8057H42.3021V24.4836Z" fill="#3F3D56"/>
<path d="M21.734 32.6292L21.0954 33.2678L25.5657 37.7382L26.2043 37.0995L21.734 32.6292Z" fill="#3F3D56"/>
<path d="M12.9498 52.9328V53.8359H19.2718V52.9328H12.9498Z" fill="#3F3D56"/>
<path d="M21.0954 73.5009L21.734 74.1395L26.2043 69.6692L25.5657 69.0306L21.0954 73.5009Z" fill="#3F3D56"/>
<path d="M57.4968 37.0995L58.1354 37.7382L62.6057 33.2678L61.9671 32.6292L57.4968 37.0995Z" fill="#3F3D56"/>
<path d="M64.4292 52.9328V53.8359H70.7512V52.9328H64.4292Z" fill="#3F3D56"/>
<path d="M58.1353 69.0306L57.4967 69.6692L61.967 74.1395L62.6057 73.5009L58.1353 69.0306Z" fill="#3F3D56"/>
<path d="M42.3021 75.963H41.3989V82.285H42.3021V75.963Z" fill="#3F3D56"/>
<path d="M43.2053 51.578C42.8144 51.2849 42.3391 51.1265 41.8505 51.1265C41.362 51.1265 40.8866 51.2849 40.4958 51.578C40.2283 51.7813 40.008 52.0401 39.8501 52.3367C39.65 52.7186 39.5635 53.1498 39.6007 53.5793C39.6379 54.0088 39.7973 54.4187 40.06 54.7605C40.3228 55.1024 40.6779 55.3618 41.0834 55.5083C41.4889 55.6547 41.9278 55.682 42.3483 55.5869C42.7689 55.4918 43.1534 55.2783 43.4564 54.9717C43.7595 54.665 43.9684 54.278 44.0585 53.8564C44.1486 53.4348 44.1162 52.9962 43.965 52.5925C43.8138 52.1888 43.5502 51.8367 43.2053 51.578H43.2053ZM41.8505 54.739C41.4916 54.738 41.1476 54.5949 40.8938 54.3411C40.6399 54.0873 40.4969 53.7433 40.4958 53.3843C40.4976 53.1103 40.5809 52.8431 40.7352 52.6167C40.8675 52.425 41.047 52.2708 41.2564 52.1688C41.4657 52.0669 41.6979 52.0207 41.9303 52.0347C42.1628 52.0487 42.3877 52.1225 42.5833 52.2488C42.7789 52.3752 42.9386 52.5499 43.0469 52.756C43.1552 52.9622 43.2086 53.1928 43.2017 53.4256C43.1948 53.6583 43.128 53.8854 43.0077 54.0848C42.8874 54.2842 42.7177 54.4492 42.515 54.5638C42.3123 54.6784 42.0834 54.7388 41.8505 54.739V54.739Z" fill="#3F3D56"/>
<path d="M45.9147 14.0975H37.7864V22.2258H45.9147V14.0975Z" fill="#3F3D56"/>
<path d="M41.8505 15.4523C47.836 15.4523 52.6882 13.7338 52.6882 11.6139C52.6882 9.49401 47.836 7.77551 41.8505 7.77551C35.865 7.77551 31.0128 9.49401 31.0128 11.6139C31.0128 13.7338 35.865 15.4523 41.8505 15.4523Z" fill="#3F3D56"/>
<path d="M43.2052 36.2246H40.4958V51.5781H43.2052V36.2246Z" fill="#3F3D56"/>
<path d="M84.8957 83.6187H0V84.5218H84.8957V83.6187Z" fill="#3F3D56"/>
<path d="M56.5697 226.106C56.9202 238.108 49.9076 242.506 41.1069 242.763C40.9025 242.769 40.699 242.773 40.4964 242.774C40.0883 242.777 39.6841 242.77 39.2839 242.754C31.3247 242.423 25.0244 238.198 24.6985 227.037C24.3611 215.486 38.6983 200.477 39.774 199.367L39.7759 199.366C39.8168 199.324 39.8377 199.303 39.8377 199.303C39.8377 199.303 56.2192 214.105 56.5697 226.106Z" fill="#D0CDE1"/>
<path d="M40.4734 240.944L46.0638 232.631L40.4848 241.839L40.4964 242.774C40.0883 242.777 39.6842 242.77 39.284 242.754L39.5612 230.729L39.5536 230.636L39.5639 230.618L39.5904 229.482L33.4682 220.593L39.5832 228.631L39.6049 228.871L39.8143 219.786L34.5264 210.57L39.8294 218.19L39.774 199.367L39.7741 199.305L39.7759 199.366L40.127 214.201L44.9463 208.175L40.1427 215.479L40.2479 223.606L44.6827 215.674L40.2642 224.8L40.3228 229.319L46.7721 218.271L40.3424 230.896L40.4734 240.944Z" fill="#3F3D56"/>
<path d="M299.987 226.106C300.338 238.108 293.325 242.506 284.525 242.763C284.32 242.769 284.117 242.773 283.914 242.774C283.506 242.777 283.102 242.77 282.702 242.754C274.742 242.423 268.442 238.198 268.116 227.037C267.779 215.486 282.116 200.477 283.192 199.367L283.194 199.366C283.234 199.324 283.255 199.303 283.255 199.303C283.255 199.303 299.637 214.105 299.987 226.106Z" fill="#D0CDE1"/>
<path d="M283.891 240.944L289.482 232.631L283.903 241.839L283.914 242.774C283.506 242.777 283.102 242.77 282.702 242.754L282.979 230.729L282.971 230.636L282.982 230.618L283.008 229.482L276.886 220.593L283.001 228.631L283.023 228.871L283.232 219.786L277.944 210.57L283.247 218.19L283.192 199.367L283.192 199.305L283.194 199.366L283.545 214.201L288.364 208.175L283.56 215.479L283.666 223.606L288.1 215.674L283.682 224.8L283.74 229.319L290.19 218.271L283.76 230.896L283.891 240.944Z" fill="#3F3D56"/>
</g>
<defs>
<clipPath id="clip0">
<rect width="300" height="258.903" fill="white" transform="translate(0 0.811523)"/>
</clipPath>
</defs>
</svg>
