<svg width="300" height="172" viewBox="0 0 300 172" fill="none" xmlns="http://www.w3.org/2000/svg">
<g clip-path="url(#clip0)">
<path opacity="0.1" d="M180.346 124.047C186.142 123.717 193.332 119.786 198.923 118.047C205.54 115.995 212.184 114.02 218.853 112.123C242.072 105.517 265.539 99.8873 289.256 95.2352C291.469 94.7999 293.686 94.3751 295.906 93.9608C292.448 86.4875 287.09 80.0521 280.366 75.2973C280.538 73.6613 280.626 72.0175 280.628 70.3725C280.628 44.3742 259.851 23.2982 234.212 23.2982C226.319 23.2898 218.558 25.3272 211.686 29.2116C193.539 17.2746 169.854 10.0499 143.94 10.0499C107.116 10.0499 74.7902 24.6382 56.4729 46.6059L142.56 61.1496L195.359 70.0657C135.168 71.862 74.7902 73.6478 14.7718 69.431C6.84911 77.097 1.83458 87.2764 0.585228 98.2298C-0.66412 109.183 1.92927 120.23 7.92218 129.483C7.92218 130.425 7.96151 131.358 8.03232 132.284C9.56116 132.722 11.0376 133.147 12.3619 133.425C33.6224 137.916 55.0192 141.675 76.5524 144.701C60.6844 154.485 41.3601 155.87 23.0559 160.013C31.9196 167.33 43.9563 171.814 57.2203 171.814H254.717C276.102 171.814 293.436 156.927 293.436 138.56C296.645 133.268 298.784 127.397 299.73 121.281C260.158 125.102 220.094 121.784 180.346 124.047Z" fill="#00BAFC"/>
<path opacity="0.1" d="M300 113.458C300.021 105.888 298.222 98.4246 294.753 91.6963C291.284 84.968 286.248 79.1726 280.07 74.799C280.241 73.1638 280.328 71.5209 280.332 69.8768C280.332 43.8786 259.545 22.8104 233.916 22.8104C226.022 22.8019 218.26 24.8383 211.387 28.7212C193.24 16.7789 169.552 9.55164 143.638 9.55164C101.486 9.55164 65.2028 28.6819 49.1119 56.1146C48.2177 56.0621 47.3182 56.0333 46.4109 56.0333C20.7797 56.0333 -0.00522705 77.1093 -0.00522705 103.108C-0.0231923 112.291 2.63001 121.281 7.63114 128.983C7.63114 152.374 29.7089 171.337 56.9318 171.337H254.434C275.816 171.337 293.15 156.447 293.15 138.08C297.648 130.656 300.017 122.138 300 113.458Z" fill="#00BAFC"/>
<path d="M245.004 84.6173C244.629 84.3294 244.19 84.1369 243.724 84.0561C243.233 83.9433 242.733 83.8725 242.234 83.7939L235.778 82.8629C235.126 82.7419 234.462 82.7067 233.801 82.758C233.469 82.7852 233.146 82.878 232.851 83.0311C232.556 83.1842 232.294 83.3944 232.08 83.6496C231.888 83.8871 231.783 84.1832 231.781 84.4888C231.817 84.7963 231.917 85.0929 232.075 85.3594C232.138 85.4839 232.191 85.6127 232.235 85.7449C232.297 86.0415 232.374 86.3347 232.466 86.6234C232.494 86.6859 232.532 86.7441 232.576 86.7965C232.577 86.8113 232.577 86.8262 232.576 86.8411C232.505 87.2029 232.733 87.5806 232.631 87.9293C232.542 88.2283 232.251 88.4092 232.067 88.6584C231.945 88.8351 231.877 89.0439 231.872 89.2589C231.868 89.4738 231.926 89.6854 232.041 89.8673C232.238 90.1715 232.594 90.3786 232.697 90.7274C232.83 91.1863 232.469 91.6295 232.146 91.9835C231.553 92.6353 231.004 93.3265 230.504 94.0526C230.364 94.2312 230.273 94.4438 230.242 94.6689C230.213 95.1251 230.651 95.5264 230.575 95.98C230.515 96.3367 230.166 96.5543 229.865 96.7668C228.75 97.501 227.856 98.6811 227.767 100.016C227.48 97.8922 226.601 95.8924 225.228 94.2467C224.853 93.7956 224.441 93.3419 224.287 92.7703C224.229 92.5421 224.219 92.2982 224.14 92.0779C223.878 91.383 223.044 91.0841 222.679 90.4442C222.417 89.9932 222.417 89.4136 222.092 89.0176C221.767 88.6217 221.255 88.5325 220.975 88.1496C220.835 87.8903 220.715 87.6202 220.618 87.3419C220.5 87.115 220.335 86.9164 220.133 86.7598C220.094 86.7288 220.054 86.6999 220.012 86.6732C220.056 86.6343 220.091 86.5866 220.115 86.5333C220.139 86.48 220.151 86.4222 220.151 86.3638C220.151 86.057 219.847 85.855 219.582 85.7029C219.241 85.5089 218.908 85.2991 218.583 85.0814C218.938 84.9163 219.245 84.6647 219.477 84.3498C219.768 83.8801 219.889 83.3244 219.818 82.7764C219.8 82.334 219.635 81.9104 219.349 81.5727C219.184 81.397 218.976 81.2711 218.803 81.1059C218.355 80.668 218.203 80.0203 218.017 79.4224C217.77 78.6356 217.385 77.8096 216.666 77.3926C216.32 77.1907 215.916 77.0963 215.578 76.8839C215.24 76.6715 214.956 76.2703 215.074 75.8848C215.153 75.6225 215.397 75.4416 215.562 75.2187C215.759 74.9305 215.835 74.5761 215.773 74.2324C215.71 73.8888 215.515 73.5836 215.229 73.383C215.035 73.2598 214.796 73.1522 214.757 72.9267C214.605 72.8873 214.468 72.8058 214.36 72.6917C214.252 72.5776 214.179 72.4355 214.149 72.2816C214.09 71.9732 214.09 71.6564 214.149 71.348C214.217 70.8603 214.284 70.3743 214.351 69.89C214.466 69.938 214.59 69.9628 214.715 69.9628C214.84 69.9628 214.964 69.938 215.08 69.89C215.306 70.2583 215.57 70.6027 215.866 70.918C216.665 71.861 217.287 72.9403 217.702 74.1042C217.851 74.5238 218.004 74.9932 218.392 75.2161C218.525 75.2921 218.677 75.3314 218.809 75.4127C218.97 75.5255 219.109 75.6678 219.218 75.8323C219.532 76.2493 219.847 76.6636 220.159 77.0806L220.175 77.1435C220.183 77.1804 220.197 77.2158 220.217 77.2484C220.275 77.3138 220.355 77.3549 220.442 77.3638C221.407 77.5867 222.49 77.7912 223.327 77.2641C224.082 76.7921 224.413 75.8585 225.052 75.2344C225.506 74.7912 226.149 74.4477 226.277 73.8236C226.124 73.7763 225.973 73.7212 225.826 73.6584C225.957 73.5272 226.088 73.3751 226.267 73.2021C226.526 72.9484 226.759 72.67 226.964 72.3708C227.186 72.0017 227.362 71.6072 227.489 71.196C227.994 69.7554 228.501 68.314 229.01 66.8717C229.251 66.1898 229.492 65.5028 229.796 64.8393C230.111 64.1208 230.483 63.4311 230.827 62.7257C231.714 60.8911 232.398 58.9654 232.867 56.9827C232.95 56.7122 232.978 56.4276 232.948 56.1461C232.875 55.6925 232.531 55.3358 232.204 55.0133C231.874 54.6564 231.498 54.3451 231.087 54.0876C230.88 53.959 230.649 53.8728 230.409 53.8341C230.169 53.7954 229.923 53.8049 229.686 53.862C229.015 54.0587 228.593 54.7458 228.438 55.4355C228.283 56.1252 228.341 56.8358 228.275 57.5334C228.181 58.543 227.835 59.5185 227.751 60.5307C227.706 61.1155 227.751 61.7082 227.68 62.293C227.551 63.0583 227.285 63.7939 226.893 64.4643C226.043 66.0631 224.892 67.4825 223.503 68.6444C223.343 68.7781 223.177 68.9066 223.02 69.0508C223.02 68.9381 223.038 68.8227 223.054 68.7099C222.94 68.7396 222.829 68.7791 222.721 68.8279C222.734 68.6955 222.721 68.5618 222.682 68.4346C222.472 67.8078 221.538 67.6479 221.371 67.0106C221.343 66.853 221.328 66.6934 221.326 66.5334C221.271 65.9748 220.891 65.5028 220.76 64.9599C220.639 64.4591 220.731 63.911 220.497 63.4468C220.299 63.1566 220.064 62.8923 219.8 62.6601C219.485 62.3002 219.258 61.872 219.136 61.4092C219.102 61.2807 219.071 61.147 219.034 61.0185C219.074 60.7275 219.042 60.4312 218.94 60.1557C218.701 59.5631 218.085 59.1828 217.862 58.5823C217.689 58.1155 217.765 57.5334 217.437 57.1715C217.263 56.9986 217.05 56.87 216.816 56.7965C215.615 56.3291 214.356 56.0316 213.073 55.9127C212.355 55.8472 211.563 55.8105 211.049 55.3043C210.448 54.7169 210.42 53.6601 209.717 53.2064C209.098 52.8052 208.222 53.1016 207.742 53.6654C207.67 53.7483 207.603 53.8359 207.543 53.9276C207.455 53.5761 207.437 53.211 207.488 52.8524C207.488 52.7633 207.506 52.6715 207.514 52.5902C208.698 52.2033 209.706 51.4075 210.357 50.3454C210.357 50.3454 210.357 50.3454 210.357 50.3612L210.388 50.4425C210.464 50.6339 210.585 50.8175 210.763 50.8384C210.882 50.837 210.996 50.7954 211.088 50.7204C211.247 50.6105 211.392 50.4839 211.524 50.3428C211.59 50.2694 211.653 50.1933 211.712 50.1147C211.833 49.9509 211.937 49.7751 212.022 49.5902C212.152 49.3119 212.241 49.0159 212.284 48.7117C212.331 48.4075 212.337 48.0954 212.389 47.7912C212.438 47.5558 212.502 47.3236 212.58 47.0963C212.607 47.0203 212.633 46.9442 212.656 46.8682C212.68 46.7921 212.714 46.6898 212.74 46.6059C212.905 46.0666 212.993 45.507 213.003 44.9433C213.003 44.8489 213.003 44.7545 213.003 44.6601C212.993 44.2922 212.91 43.93 212.759 43.5945C212.608 43.259 212.391 42.9571 212.122 42.7064C211.67 42.3367 211.073 42.182 210.742 41.6811C210.527 41.3454 210.48 40.9127 210.354 40.5194C210.218 40.0486 209.953 39.6254 209.588 39.2977C209.224 38.97 208.775 38.751 208.293 38.6654C207.712 38.6016 207.128 38.762 206.662 39.1138L206.625 39.1426C206.365 39.3412 206.144 39.5867 205.975 39.8664C205.628 39.771 205.311 39.5907 205.052 39.3419C204.789 39.0981 204.587 38.7912 204.323 38.5552C204.075 38.3285 203.771 38.1725 203.443 38.1033C203.114 38.0341 202.773 38.0543 202.455 38.1619C202.128 38.2931 201.836 38.5 201.604 38.7658C201.372 39.0315 201.206 39.3485 201.121 39.6907C200.976 40.2309 201.003 40.8524 200.701 41.3035C200.468 41.6549 200.085 41.8279 199.817 42.1479C199.651 42.3505 199.538 42.591 199.487 42.8481C199.455 42.9918 199.44 43.1388 199.442 43.286C199.442 43.3515 199.442 43.4171 199.458 43.48C199.458 43.48 199.458 43.501 199.458 43.5115C199.467 43.5834 199.482 43.6544 199.503 43.7239C199.577 43.9898 199.711 44.2354 199.893 44.4425C200.066 44.6408 200.283 44.7969 200.525 44.8988C200.625 44.9374 200.726 44.9698 200.83 44.9958L201.142 45.0666L201.252 45.0928C200.875 45.7999 200.666 46.584 200.641 47.3847C200.615 48.1854 200.774 48.9812 201.105 49.7108C201.105 49.7842 201.087 49.8577 201.079 49.9311C201.036 50.9637 201.082 51.998 201.215 53.0229C201.252 53.4293 201.273 53.8778 201.024 54.2003C200.91 54.3272 200.783 54.4407 200.643 54.5386C200.785 54.355 200.929 54.1741 201.076 53.9932C200.706 53.6208 200.122 53.5736 199.597 53.6103C198.582 53.6861 197.597 53.9871 196.712 54.4914C196.125 54.8297 195.522 55.2781 194.851 55.1995C194.455 55.1549 194.064 54.9372 193.678 55.0421C193.462 55.1308 193.259 55.2509 193.078 55.3988C192.934 55.5016 192.761 55.555 192.585 55.5509C192.173 55.0447 191.536 54.7012 191.043 54.2895C190.482 53.79 189.968 53.2396 189.509 52.6453C188.659 51.6199 187.812 50.5919 186.978 49.5561C186.275 48.6855 185.554 47.744 185.431 46.6295C185.418 46.519 185.412 46.4078 185.413 46.2965C185.43 45.7669 185.496 45.2401 185.612 44.7231C185.643 44.5982 185.643 44.4676 185.612 44.3428C185.533 44.0806 185.232 43.9835 184.972 43.9258C185.006 43.7239 185.03 43.5168 185.043 43.3201C185.19 41.0648 185.03 38.7729 185.507 36.5648C185.688 35.7152 185.984 34.855 186.595 34.2388C187.552 33.2711 189.155 33.0377 189.889 31.8918C190.503 30.9372 190.259 29.5867 189.488 28.7449C188.717 27.9031 187.529 27.5596 186.399 27.6016C186.081 27.5907 185.768 27.6747 185.499 27.8428C185.248 28.0662 185.059 28.3521 184.954 28.6715L183.829 31.4066C183.503 32.1187 183.227 32.8531 183.005 33.6042C182.691 34.7528 182.62 35.9643 182.371 37.1234C182.371 38.015 181.796 39.1269 181.482 39.9477C181.13 40.8708 180.75 41.7834 180.433 42.7248C180.354 42.9608 180.079 43.661 179.908 44.2982C179.844 44.3357 179.784 44.3806 179.73 44.432C179.593 44.6074 179.469 44.7923 179.358 44.9853C179.119 45.3 178.731 45.4678 178.469 45.772C178.206 46.0762 178.151 46.6348 178.516 46.7869C178.59 46.8117 178.666 46.8285 178.744 46.8367C178.792 46.8407 178.839 46.8486 178.886 46.8603C179.279 46.9704 179.434 47.4661 179.376 47.8751C179.318 48.2842 179.114 48.6619 179.08 49.071C179.009 49.7947 179.434 50.4687 179.843 51.0771C180.266 51.7366 180.734 52.3665 181.243 52.9626C181.613 53.3769 182.03 53.7493 182.402 54.1479C183.821 55.6059 184.948 57.3105 186.223 58.8944C186.681 59.4922 187.203 60.039 187.778 60.5255C188.154 60.8193 188.547 61.0899 188.955 61.3358L191.148 62.7257C191.396 62.9079 191.678 63.0405 191.976 63.1164C192.074 63.1295 192.173 63.1295 192.27 63.1164C192.283 63.182 192.294 63.2449 192.309 63.3105C192.48 63.9975 192.855 64.6217 192.897 65.3218C192.939 66.022 192.876 66.7379 192.926 67.4459C192.973 68.0989 193.117 68.7571 193.154 69.3996C193.227 70.6374 192.923 71.8594 192.629 73.071C192.186 74.8437 191.919 76.6531 191.056 78.2606C190.815 78.7038 190.531 79.1549 190.531 79.661C190.531 79.7213 190.531 79.7842 190.547 79.8446L190.154 80.0675C190.038 80.133 189.923 80.1986 189.818 80.2668C189.32 80.5919 188.788 80.9512 188.583 81.5124C188.418 81.9661 188.494 82.4853 188.295 82.9258C188.285 82.9456 188.275 82.9649 188.263 82.9835C188.053 83.3926 187.636 83.6968 187.542 84.1453C187.471 84.4888 187.608 84.8533 187.542 85.1942C187.542 85.1942 187.542 85.1942 187.542 85.2073C187.482 85.3785 187.435 85.5538 187.4 85.7318C187.398 85.7899 187.403 85.8482 187.416 85.9049C187.466 86.1036 187.576 86.2821 187.731 86.4162C187.825 86.5069 187.928 86.5886 188.038 86.6601C188.149 86.7335 188.265 86.8017 188.384 86.8647L188.452 86.9014C188.552 86.9538 188.651 87.0036 188.754 87.0508L188.822 87.0797C188.94 87.1321 189.06 87.1793 189.181 87.2213L189.265 87.2475C189.359 87.279 189.456 87.3078 189.553 87.3314L189.619 87.3524L189.679 87.3655L189.941 87.4206L190.038 87.439C190.154 87.4582 190.272 87.4739 190.393 87.4862H190.497C190.587 87.4862 190.673 87.4993 190.76 87.5019H190.883C190.975 87.5019 191.064 87.5019 191.145 87.5019H191.24C191.363 87.5019 191.486 87.4835 191.609 87.4678H191.649C191.759 87.4521 191.869 87.4337 191.979 87.4101L192.063 87.3918C192.165 87.3682 192.267 87.3446 192.37 87.3131L192.425 87.2974C192.548 87.2606 192.671 87.2213 192.792 87.1741C193.209 87.0025 193.614 86.8019 194.004 86.5736C194.266 86.4293 194.528 86.2825 194.79 86.1488C194.985 86.0507 195.184 85.9632 195.388 85.8865C195.884 85.6746 196.424 85.5847 196.962 85.6243C197.227 85.6604 197.49 85.7139 197.748 85.7842C197.748 85.8131 197.748 85.8419 197.748 85.8708C197.962 87.1295 198.172 88.3883 198.38 89.647C198.724 89.3998 199.087 89.1815 199.466 88.994C199.395 89.1841 199.348 89.3823 199.327 89.5841C199.311 89.7401 199.311 89.8974 199.327 90.0535C199.351 90.3026 199.403 90.5779 199.254 90.7746C199.162 90.8953 198.991 90.9634 198.941 91.0998C198.905 91.2392 198.896 91.3844 198.915 91.5272C198.904 91.6903 198.836 91.844 198.721 91.9604C198.606 92.0769 198.454 92.1484 198.291 92.1619C198.366 92.3729 198.368 92.6032 198.296 92.8154C198.224 93.0276 198.083 93.2094 197.895 93.3314C197.785 93.3842 197.683 93.4512 197.591 93.5307C197.501 93.6466 197.441 93.7825 197.415 93.9267C197.069 95.2254 196.356 96.3969 195.362 97.3017C194.989 97.5947 194.649 97.9271 194.347 98.293C194.161 98.5763 194.007 98.8798 193.888 99.1977C193.189 100.907 192.479 102.618 191.759 104.33C191.36 105.287 190.972 106.26 190.846 107.29C190.531 110.117 188.014 112.514 188.486 115.32C188.581 116.021 188.864 116.683 189.304 117.237C189.829 117.869 190.615 118.231 191.402 118.525C193.424 119.311 195.556 119.741 197.68 120.174L201.016 120.859C201.67 121.009 202.334 121.114 203.004 121.173C203.809 121.228 204.635 121.152 205.419 121.357C205.904 121.483 206.368 121.716 206.869 121.742C207.299 121.766 207.829 121.674 208.083 122.026C208.337 122.377 208.141 122.841 208.382 123.153C208.77 123.649 209.717 123.153 210.139 123.62C210.254 123.799 210.343 123.994 210.401 124.199C210.465 124.326 210.555 124.439 210.663 124.53C210.689 124.678 210.7 124.828 210.695 124.978C210.64 125.587 210.513 126.188 210.317 126.767C210.003 127.831 209.689 128.897 209.376 129.963C209.256 130.34 209.169 130.726 209.114 131.117C209.094 131.307 209.094 131.499 209.114 131.689C209.169 132.269 209.502 132.866 210.055 133.055C210.484 133.169 210.941 133.112 211.33 132.898C211.705 132.702 212.057 132.464 212.379 132.19C212.959 131.751 213.469 131.225 213.892 130.632C215.203 128.671 214.778 126.017 215.698 123.848C216.309 122.4 217.5 121.226 217.896 119.699C217.989 119.409 218 119.099 217.927 118.803C217.762 118.278 217.204 117.979 216.682 117.79H216.658C216.23 117.638 215.792 117.512 215.347 117.415C215.237 117.392 215.124 117.373 215.011 117.355C214.762 117.152 214.563 116.893 214.432 116.6C214.411 116.444 214.37 116.291 214.309 116.146C214.267 116.084 214.211 116.032 214.145 115.995C214.08 115.959 214.006 115.939 213.931 115.936C213.669 115.91 213.317 116.005 213.031 115.984C212.447 115.942 212.059 115.367 211.534 115.102C211.01 114.838 210.441 114.903 209.882 114.942C209.682 114.97 209.479 114.957 209.284 114.906C209.051 114.798 208.838 114.652 208.655 114.473C208.332 114.222 207.955 114.049 207.554 113.969C207.153 113.888 206.739 113.902 206.344 114.009C206.093 114.11 205.828 114.17 205.558 114.187C205.046 114.158 204.684 113.702 204.307 113.356C203.274 112.409 201.802 112.16 200.549 111.539C200.357 111.467 200.197 111.33 200.098 111.15C199.954 110.794 200.279 110.437 200.573 110.193L202.728 108.402C205.088 106.441 208.038 104.964 209.135 102.088C209.249 101.702 209.426 101.338 209.659 101.01C209.744 100.91 209.842 100.821 209.95 100.748C210.427 100.439 211.005 100.326 211.563 100.433C212.243 100.585 212.888 100.866 213.462 101.262C214.4 101.83 215.314 102.442 216.202 103.097C217.082 103.726 217.918 104.413 218.706 105.153C220.083 106.464 221.229 108.019 222.511 109.433C223.794 110.846 225.26 112.165 227.04 112.842C228.821 113.519 230.974 113.49 232.503 112.354C234.268 111.043 234.834 108.699 235.28 106.548C236.263 105.599 236.559 104.154 237.039 102.877C237.341 102.067 237.726 101.303 238.052 100.496C238.44 99.5465 238.744 98.5657 239.048 97.5876C239.393 96.6053 239.627 95.5876 239.746 94.5535C239.872 92.9197 239.434 91.1811 239.893 89.647C240.498 89.5133 241.049 89.1723 241.644 88.973C242.531 88.682 243.48 88.7292 244.419 88.7344H244.479C244.803 88.7688 245.128 88.6921 245.402 88.5168C245.717 88.2545 245.767 87.8061 245.782 87.3996C245.819 86.3953 245.756 85.2676 245.004 84.6173ZM207.008 39.8848C206.791 39.9384 206.567 39.9544 206.344 39.932L207.008 39.8848Z" fill="url(#paint0_linear)"/>
<path d="M208.041 56.4738C207.724 56.7435 207.351 56.9412 206.95 57.0534L205.091 57.7194C204.081 58.0813 203.027 58.4459 201.962 58.3147C201.367 58.2413 198.816 57.8663 198.43 57.4021C197.843 56.6836 199.901 55.6268 200.604 55.021C200.763 54.9065 200.911 54.7765 201.045 54.6329C201.307 54.313 201.273 53.8646 201.236 53.4607C201.103 52.4376 201.057 51.405 201.1 50.3742C201.12 50.1284 201.155 49.8841 201.205 49.6425C201.467 48.4362 202.589 48.8768 203.475 49.1967C204.542 49.5433 205.574 49.9902 206.557 50.5315C206.856 50.6858 207.116 50.9065 207.317 51.1766C207.705 51.764 207.551 52.535 207.488 53.2745C207.433 53.8488 207.435 54.3995 207.795 54.8165C207.975 54.9759 208.141 55.1514 208.29 55.3409C208.374 55.5318 208.395 55.7444 208.35 55.948C208.306 56.1517 208.197 56.3358 208.041 56.4738Z" fill="#BE6F72"/>
<path d="M182.358 37.5744C182.62 36.4127 182.677 35.2142 182.992 34.063C183.214 33.3145 183.489 32.5827 183.816 31.8733L184.972 29.1749C185.078 28.8563 185.266 28.5713 185.517 28.3488C185.787 28.1819 186.1 28.098 186.417 28.1076C187.547 28.0656 188.735 28.417 189.506 29.2483C190.277 30.0796 190.521 31.4249 189.907 32.3768C189.173 33.5228 187.571 33.7536 186.614 34.7186C186.003 35.3349 185.706 36.1924 185.525 37.0394C185.048 39.2422 185.208 41.5263 185.061 43.7763C185.014 44.4765 184.878 45.2763 184.274 45.6382C183.91 45.8168 183.505 45.8955 183.1 45.8663L181.379 45.8952C181.091 45.8952 180.045 46.0761 179.853 45.8585C179.517 45.4782 180.283 43.5849 180.422 43.1627C180.732 42.2265 181.112 41.3139 181.471 40.3934C181.783 39.5726 182.358 38.4634 182.358 37.5744Z" fill="#BE6F72"/>
<path d="M217.878 119.959C217.482 121.475 216.291 122.655 215.68 124.1C214.76 126.263 215.174 128.909 213.873 130.865C213.451 131.46 212.941 131.986 212.36 132.426C212.038 132.7 211.686 132.936 211.311 133.131C210.922 133.346 210.466 133.402 210.037 133.289C209.483 133.1 209.15 132.502 209.095 131.925C209.076 131.736 209.076 131.545 209.095 131.356C209.15 130.965 209.238 130.58 209.358 130.205C209.672 129.143 209.986 128.081 210.299 127.016C210.495 126.438 210.622 125.84 210.677 125.233C210.711 124.572 210.291 123.712 210.469 123.095C210.551 122.817 210.855 122.571 210.994 122.338C211.191 122.002 211.343 121.641 211.445 121.265C211.66 120.533 211.807 119.752 212.258 119.136C212.552 118.77 212.896 118.448 213.281 118.178C213.564 117.93 213.896 117.743 214.256 117.63C214.605 117.569 214.963 117.586 215.305 117.68C215.75 117.775 216.188 117.9 216.616 118.053H216.64C217.164 118.241 217.72 118.532 217.886 119.062C217.966 119.356 217.963 119.667 217.878 119.959Z" fill="#3F3D56"/>
<path d="M245.78 87.7195C245.764 88.126 245.714 88.5796 245.399 88.834C245.125 89.0093 244.8 89.0861 244.476 89.0517H244.406C243.469 89.0517 242.517 88.9992 241.631 89.2903C240.957 89.5132 240.338 89.9223 239.636 90.0036C238.668 90.1137 237.758 89.584 236.9 89.1225C236.093 88.6875 235.264 88.2937 234.417 87.9424C233.861 87.7143 232.726 87.5674 232.458 86.959C232.366 86.6711 232.289 86.3788 232.227 86.0831C232.183 85.951 232.13 85.8221 232.067 85.6976C231.91 85.4319 231.81 85.1363 231.774 84.8296C231.775 84.524 231.88 84.2279 232.073 83.9905C232.287 83.7372 232.548 83.5288 232.843 83.3771C233.138 83.2254 233.46 83.1335 233.79 83.1067C234.451 83.0554 235.116 83.0906 235.768 83.2116L242.224 84.1399C242.722 84.2107 243.223 84.2816 243.713 84.4022C244.179 84.483 244.618 84.6755 244.993 84.9634C245.756 85.6032 245.819 86.7282 245.78 87.7195Z" fill="#3F3D56"/>
<path d="M240.105 89.3978C239.318 91.0578 239.885 93.0219 239.743 94.8576C239.624 95.8892 239.39 96.9042 239.045 97.8838C238.741 98.8593 238.437 99.8375 238.049 100.784C237.724 101.571 237.338 102.358 237.037 103.16C236.557 104.44 236.25 105.879 235.277 106.831C234.831 108.976 234.265 111.321 232.5 112.622C230.966 113.754 228.829 113.794 227.038 113.109C225.247 112.425 223.791 111.114 222.509 109.7C221.226 108.287 220.08 106.747 218.704 105.431C217.915 104.69 217.076 104.004 216.194 103.378C215.306 102.733 214.392 102.126 213.454 101.558C212.879 101.164 212.235 100.884 211.555 100.732C210.997 100.625 210.419 100.737 209.942 101.046C209.834 101.12 209.736 101.209 209.651 101.309C209.418 101.635 209.241 101.999 209.127 102.384C208.025 105.253 205.07 106.726 202.71 108.683L200.554 110.469C200.26 110.712 199.935 111.069 200.08 111.423C200.179 111.602 200.339 111.74 200.531 111.811C201.784 112.43 203.255 112.679 204.288 113.623C204.666 113.969 205.028 114.426 205.539 114.452C205.809 114.436 206.075 114.377 206.326 114.276C206.721 114.17 207.135 114.156 207.535 114.236C207.936 114.316 208.313 114.488 208.636 114.738C208.82 114.917 209.033 115.063 209.266 115.171C209.461 115.222 209.664 115.235 209.864 115.207C210.422 115.168 211.015 115.118 211.516 115.367C212.017 115.616 212.428 116.204 213.013 116.246C213.299 116.267 213.64 116.172 213.913 116.198C213.988 116.201 214.061 116.221 214.127 116.258C214.192 116.294 214.249 116.346 214.29 116.408C214.351 116.552 214.393 116.704 214.413 116.859C214.521 117.229 214.883 117.455 215.119 117.759C215.481 118.226 215.533 118.86 215.497 119.45C215.378 121.295 214.555 123.024 213.199 124.281C212.814 124.674 212.323 124.948 211.786 125.067C211.517 125.124 211.237 125.094 210.985 124.982C210.734 124.871 210.524 124.683 210.385 124.446C210.327 124.242 210.239 124.047 210.123 123.869C209.701 123.405 208.754 123.898 208.366 123.402C208.125 123.093 208.298 122.597 208.067 122.277C207.837 121.957 207.281 122.015 206.853 121.997C206.352 121.97 205.888 121.734 205.403 121.611C204.616 121.407 203.793 121.483 202.988 121.428C202.319 121.369 201.655 121.263 201 121.113L197.664 120.431C195.54 119.998 193.408 119.56 191.386 118.787C190.613 118.493 189.834 118.131 189.288 117.502C188.849 116.949 188.566 116.287 188.47 115.587C187.996 112.789 190.513 110.398 190.83 107.579C190.943 106.551 191.355 105.58 191.743 104.626C192.455 102.92 193.164 101.212 193.872 99.5044C193.987 99.1864 194.136 98.8821 194.318 98.5971C194.62 98.232 194.96 97.9005 195.333 97.6085C196.327 96.7067 197.04 95.5377 197.386 94.2413C197.412 94.0971 197.472 93.9612 197.562 93.8453C197.655 93.7675 197.757 93.7015 197.866 93.6487C198.054 93.5267 198.194 93.3454 198.266 93.1337C198.338 92.9221 198.337 92.6924 198.262 92.4817C198.425 92.4682 198.578 92.3968 198.692 92.2803C198.807 92.1638 198.876 92.0101 198.886 91.8471C198.867 91.7051 198.876 91.5608 198.913 91.4223C198.976 91.2859 199.133 91.2177 199.225 91.0971C199.374 90.9004 199.322 90.6251 199.298 90.3786C199.282 90.2225 199.282 90.0652 199.298 89.9092C199.355 89.3539 199.604 88.8357 200.001 88.4432C200.628 87.827 201.519 87.987 202.385 87.8401C203.248 87.6538 204.091 87.3842 204.902 87.035C207.178 86.1385 209.573 85.5843 212.011 85.3908C214.461 85.1981 216.922 85.59 219.191 86.5342C219.522 86.6679 219.833 86.8442 220.117 87.0586C220.319 87.2143 220.485 87.412 220.602 87.6382C220.699 87.9158 220.818 88.185 220.959 88.4432C221.24 88.8261 221.769 88.9494 222.076 89.3113C222.383 89.6731 222.409 90.2842 222.663 90.7326C223.028 91.3724 223.872 91.6688 224.124 92.3637C224.203 92.584 224.213 92.8252 224.271 93.0534C224.413 93.6251 224.837 94.0761 225.212 94.5272C226.587 96.1715 227.467 98.1719 227.751 100.296C227.835 98.9669 228.729 97.7894 229.849 97.0551C230.15 96.8585 230.499 96.6408 230.559 96.2842C230.636 95.8331 230.198 95.4319 230.226 94.973C230.258 94.7489 230.349 94.5372 230.489 94.3593C230.988 93.635 231.537 92.9454 232.13 92.2955C232.453 91.9415 232.815 91.5088 232.681 91.042C232.579 90.6932 232.222 90.4887 232.025 90.1845C231.911 90.0032 231.852 89.792 231.857 89.5774C231.861 89.3628 231.929 89.1544 232.052 88.9782C232.235 88.7291 232.526 88.5481 232.615 88.2518C232.718 87.903 232.49 87.5254 232.56 87.1661C232.656 86.8785 232.847 86.6317 233.101 86.466C233.448 86.1492 233.844 85.889 234.273 85.695C234.965 85.4328 235.736 85.5298 236.47 85.6321C237.698 85.8025 239.074 86.0648 239.767 87.0927C240.21 87.7352 240.435 88.7107 240.105 89.3978Z" fill="#65617D"/>
<path opacity="0.1" d="M245.78 87.7195C245.764 88.1259 245.714 88.5796 245.399 88.834C245.125 89.0093 244.8 89.0861 244.476 89.0516H244.406C244.513 88.5062 245.177 88.1941 245.292 87.6408C245.312 87.4708 245.296 87.2986 245.247 87.1349C245.197 86.9711 245.114 86.8193 245.004 86.6889C244.442 85.931 243.54 85.5114 242.643 85.2046C240.11 84.336 237.395 84.1328 234.76 84.6146C234.044 84.7313 233.347 84.9457 232.689 85.2518C232.471 85.3883 232.261 85.5372 232.059 85.6976C231.902 85.4319 231.802 85.1363 231.766 84.8296C231.767 84.524 231.872 84.2279 232.065 83.9905C232.279 83.7372 232.541 83.5288 232.835 83.3771C233.13 83.2254 233.452 83.1335 233.782 83.1067C234.443 83.0554 235.108 83.0906 235.76 83.2116L242.216 84.1399C242.714 84.2107 243.215 84.2815 243.705 84.4022C244.171 84.483 244.61 84.6755 244.985 84.9634C245.756 85.6032 245.819 86.7282 245.78 87.7195Z" fill="black"/>
<path opacity="0.1" d="M217.878 119.959C217.482 121.475 216.291 122.655 215.68 124.1C214.76 126.263 215.174 128.909 213.873 130.865C213.451 131.46 212.941 131.986 212.36 132.426C212.038 132.7 211.686 132.936 211.311 133.131C210.922 133.346 210.466 133.402 210.037 133.288C209.483 133.1 209.15 132.502 209.095 131.925C209.076 131.736 209.076 131.545 209.095 131.356L209.111 131.398C209.339 131.948 209.712 132.525 210.299 132.622C210.519 132.638 210.741 132.609 210.949 132.535C211.158 132.461 211.349 132.346 211.51 132.195C212.376 131.5 212.879 130.464 213.359 129.465C213.735 128.745 214.032 127.986 214.246 127.202C214.35 126.756 214.4 126.3 214.508 125.854C215.006 123.688 216.703 121.92 217.078 119.726C217.108 119.575 217.115 119.42 217.099 119.267C217.049 119.067 216.973 118.875 216.873 118.695C216.782 118.492 216.715 118.279 216.674 118.06C217.198 118.249 217.754 118.54 217.92 119.07C217.987 119.365 217.973 119.672 217.878 119.959Z" fill="black"/>
<path opacity="0.1" d="M213.918 116.199C213.675 116.833 213.267 117.391 212.735 117.814C211.989 118.383 211.115 118.761 210.189 118.915C209.758 119.025 209.306 119.02 208.878 118.9C208.295 118.698 207.876 118.152 207.281 117.995C206.856 117.879 206.399 117.982 205.969 117.919C205.196 117.811 204.595 117.221 203.971 116.749C202.059 115.312 199.55 114.848 197.638 113.411C197.553 113.359 197.483 113.286 197.434 113.199C197.397 113.104 197.383 113.003 197.394 112.902C197.401 112.031 197.597 111.171 197.969 110.382C198.273 109.832 198.635 109.316 199.049 108.843C200.761 106.745 202.482 104.631 204.532 102.861C205.392 102.119 206.331 101.427 207.417 101.091C208.02 100.905 209.211 100.729 209.945 101.044C209.837 101.118 209.739 101.206 209.654 101.306C209.42 101.633 209.243 101.996 209.129 102.381C208.025 105.253 205.07 106.727 202.71 108.683L200.554 110.469C200.26 110.713 199.935 111.069 200.08 111.423C200.179 111.602 200.339 111.74 200.531 111.811C201.784 112.43 203.255 112.679 204.288 113.623C204.666 113.97 205.028 114.426 205.539 114.452C205.809 114.436 206.075 114.377 206.326 114.276C206.721 114.17 207.135 114.156 207.535 114.236C207.936 114.316 208.313 114.488 208.636 114.738C208.82 114.917 209.033 115.063 209.266 115.171C209.461 115.222 209.664 115.235 209.864 115.207C210.422 115.168 211.015 115.118 211.516 115.367C212.017 115.616 212.428 116.204 213.013 116.246C213.304 116.267 213.645 116.167 213.918 116.199Z" fill="black"/>
<path d="M189.8 80.6076C189.302 80.9276 188.772 81.2895 188.567 81.8454C188.399 82.2991 188.478 82.8183 188.276 83.2589C188.074 83.6994 187.621 84.0062 187.521 84.4783C187.45 84.8218 187.589 85.1837 187.521 85.5272C187.462 85.7059 187.413 85.888 187.377 86.0727C187.351 86.4634 187.686 86.7807 188.014 86.9984C188.712 87.4523 189.507 87.7362 190.334 87.8273C191.162 87.9184 191.999 87.8141 192.779 87.5228C193.479 87.2606 194.111 86.8332 194.782 86.4975C195.437 86.1205 196.186 85.9385 196.941 85.973C197.373 86.0202 197.788 86.1776 198.22 86.2353C198.434 86.2775 198.655 86.2671 198.864 86.205C199.072 86.1428 199.263 86.0308 199.419 85.8786C199.552 85.6941 199.642 85.4816 199.681 85.2571C200.045 83.8174 199.88 82.2912 199.534 80.8437C199.188 79.3961 198.663 78.0036 198.294 76.5639C198.031 75.4966 197.83 74.4031 197.392 73.3935C196.954 72.3839 196.217 71.4451 195.186 71.0596C195.105 71.0197 195.013 71.0077 194.924 71.0255C194.858 71.0531 194.799 71.0963 194.753 71.1514C193.938 72.0153 193.324 73.0486 192.955 74.1776C192.543 75.4337 192.43 76.7659 192.052 78.0272C191.89 78.5517 191.68 79.2545 191.266 79.6557C190.851 80.0569 190.269 80.3061 189.8 80.6076Z" fill="#3F3D56"/>
<path opacity="0.1" d="M199.689 85.2492C199.645 85.4744 199.551 85.6869 199.413 85.8707C199.258 86.0234 199.067 86.1356 198.858 86.1973C198.649 86.259 198.428 86.2685 198.215 86.2248C197.785 86.1723 197.371 86.0123 196.938 85.9625C196.183 85.9276 195.434 86.1096 194.78 86.487C194.108 86.8227 193.469 87.2396 192.774 87.5097C191.757 87.8952 190.646 87.9584 189.593 87.6907C189.033 87.55 188.501 87.3159 188.019 86.9984C187.689 86.7833 187.356 86.4739 187.382 86.0727C187.419 85.8889 187.467 85.7076 187.526 85.5298C187.594 85.1863 187.458 84.8244 187.526 84.4809C187.626 84.0088 188.082 83.6942 188.281 83.2588C188.481 82.8235 188.405 82.3017 188.57 81.848C188.774 81.2894 189.307 80.9302 189.805 80.6076C190.303 80.2851 190.896 80.0386 191.295 79.6478C191.346 79.587 191.393 79.5221 191.434 79.4538C191.721 79.0105 191.932 78.522 192.058 78.0088C192.443 76.7448 192.548 75.4153 192.957 74.1566C193.328 73.0285 193.943 71.9962 194.759 71.133C194.802 71.0767 194.86 71.0332 194.927 71.0071C195.015 70.9891 195.107 71.0001 195.189 71.0386C196.217 71.4267 196.954 72.3655 197.394 73.3751C197.835 74.3847 198.021 75.473 198.296 76.5429C198.663 77.9826 199.191 79.3803 199.537 80.8253C199.883 82.2702 200.053 83.8069 199.689 85.2492Z" fill="black"/>
<path opacity="0.1" d="M207.488 53.2667C206.255 53.6585 204.92 53.5807 203.741 53.0482C202.562 52.5157 201.621 51.5662 201.1 50.3821C201.12 50.1364 201.155 49.892 201.205 49.6505C201.467 48.4442 202.589 48.8847 203.476 49.2047C204.542 49.5512 205.574 49.9982 206.557 50.5394C206.856 50.6937 207.116 50.9144 207.317 51.1846C207.705 51.7641 207.551 52.5351 207.488 53.2667Z" fill="black"/>
<path d="M205.904 53.251C208.8 53.251 211.149 50.9028 211.149 48.0062C211.149 45.1096 208.8 42.7615 205.904 42.7615C203.007 42.7615 200.659 45.1096 200.659 48.0062C200.659 50.9028 203.007 53.251 205.904 53.251Z" fill="#BE6F72"/>
<path opacity="0.1" d="M220.135 87.2003C220.135 87.6356 219.545 87.7746 219.108 87.751C217.534 87.6592 215.995 87.2265 214.437 87.3576C212.468 87.536 210.658 88.6243 208.684 88.7239C207.923 88.7632 207.149 88.6505 206.399 88.7895C205.429 88.9704 204.564 89.5604 203.575 89.6444C202.718 89.7178 201.871 89.3952 201.013 89.4293C200.414 89.4651 199.829 89.6315 199.301 89.9171C199.358 89.3618 199.607 88.8437 200.004 88.4512C200.63 87.8349 201.522 87.9949 202.387 87.848C203.25 87.6617 204.094 87.3921 204.905 87.043C207.18 86.1464 209.576 85.5923 212.014 85.3987C214.463 85.204 216.922 85.5931 219.191 86.5342C219.522 86.6679 219.833 86.8442 220.117 87.0587C220.131 87.1045 220.138 87.1524 220.135 87.2003Z" fill="black"/>
<path d="M203.478 57.5831L201.354 56.7963L200.457 56.4659C200.092 56.3128 199.707 56.2104 199.314 56.1617C198.286 56.0831 197.318 56.7675 196.77 57.6408C196.222 58.514 196.015 59.5551 195.839 60.5699C195.598 61.9581 195.393 63.3514 195.226 64.75C195.045 66.013 194.953 67.2871 194.95 68.5629C195.01 71.8095 195.698 75.0114 196.453 78.1713C196.823 79.5724 197.102 80.9958 197.289 82.4327C197.352 83.0253 197.381 83.6206 197.444 84.2159C197.512 84.8846 197.622 85.5455 197.733 86.2089L198.365 89.9773C199.151 89.4187 200.045 88.9283 201.013 88.8995C201.871 88.868 202.72 89.1879 203.575 89.1145C204.559 89.0332 205.429 88.4432 206.399 88.2622C207.149 88.1232 207.923 88.2334 208.686 88.1967C210.658 88.097 212.47 87.0061 214.437 86.8304C215.997 86.6888 217.547 87.1294 219.11 87.2212C219.545 87.2474 220.135 87.1084 220.135 86.6705C220.135 86.3663 219.831 86.1643 219.566 86.0122C218.318 85.2605 217.13 84.4127 216.013 83.4764C214.98 82.6582 213.931 81.8191 213.22 80.7124C211.508 78.0507 212.095 74.4502 210.635 71.6416C209.447 69.3601 210.635 66.3706 210.635 63.7981C210.635 62.5157 210.635 61.2177 210.333 59.972C210.145 59.2754 209.91 58.592 209.63 57.9266L208.61 55.3435C208.589 55.2681 208.547 55.2 208.49 55.1469C208.421 55.0996 208.339 55.0749 208.256 55.0761C207.644 55.0393 207.039 55.2329 206.562 55.6189C206.082 56.0096 205.775 56.5708 205.303 56.9773C204.787 57.4257 204.121 57.8191 203.478 57.5831Z" fill="#E3E8F4"/>
<path d="M206.906 56.0936C207.073 55.3751 207.254 54.6277 207.734 54.0665C208.214 53.5053 209.09 53.209 209.709 53.6102C210.412 54.0665 210.441 55.1207 211.041 55.7081C211.566 56.2116 212.352 56.251 213.066 56.3165C214.348 56.4333 215.608 56.7299 216.808 57.1976C217.042 57.2702 217.255 57.3979 217.429 57.57C217.757 57.9424 217.691 58.5141 217.854 58.9782C218.077 59.5761 218.693 59.9564 218.932 60.5517C219.194 61.2125 218.932 61.952 218.712 62.6312C218.316 63.8506 218.066 65.1172 217.681 66.3419C217.295 67.5665 216.747 68.7728 215.845 69.6959C215.447 70.105 214.854 70.4826 214.33 70.2387L214.128 71.6942C214.069 72.0017 214.069 72.3176 214.128 72.6251C214.158 72.779 214.231 72.9211 214.339 73.0352C214.447 73.1493 214.584 73.2308 214.736 73.2702C214.775 73.4957 215.014 73.6032 215.208 73.7265C215.351 73.8245 215.474 73.9499 215.568 74.0955C215.662 74.2411 215.727 74.404 215.758 74.5748C215.789 74.7455 215.786 74.9207 215.749 75.0902C215.711 75.2597 215.641 75.4201 215.541 75.5622C215.376 75.7851 215.132 75.9608 215.053 76.2256C214.935 76.6085 215.216 77.0123 215.557 77.2221C215.898 77.4319 216.299 77.5289 216.645 77.7309C217.364 78.1452 217.749 78.9608 217.996 79.7527C218.179 80.3506 218.331 80.9983 218.782 81.4337C218.955 81.5989 219.163 81.7247 219.328 81.8978C219.614 82.2357 219.779 82.6592 219.797 83.1015C219.869 83.6496 219.749 84.2057 219.456 84.6749C218.932 85.4249 217.954 85.6478 217.096 85.9861C215.704 86.5578 214.558 87.5805 213.33 88.4511C212.831 88.8537 212.242 89.1307 211.613 89.2588C210.763 89.3716 209.927 88.9966 209.072 88.9625C208.56 88.9673 208.051 89.0342 207.556 89.1618L205.983 89.5027C206.066 88.2833 205.395 87.0613 205.02 85.8996C204.312 83.7125 204.181 81.3733 204.349 79.0814C204.517 76.7894 204.983 74.5289 205.445 72.2789C205.767 70.7055 205.736 69.0613 206.232 67.5324C206.696 66.0613 207.359 64.6478 207.603 63.1164C208.002 60.6382 206.344 58.5377 206.906 56.0936Z" fill="#3F3D56"/>
<path d="M218.835 60.9424C218.979 61.2089 219.081 61.4965 219.136 61.7947C219.258 62.2566 219.485 62.684 219.8 63.0429C220.064 63.2756 220.298 63.5399 220.497 63.8297C220.739 64.2859 220.647 64.8419 220.76 65.3401C220.891 65.883 221.271 66.355 221.326 66.9136C221.328 67.0736 221.343 67.2333 221.371 67.3908C221.541 68.0255 222.475 68.1776 222.682 68.8122C222.821 69.2239 222.582 69.6723 222.627 70.105C222.659 70.2388 222.667 70.3774 222.65 70.5141C222.591 70.6686 222.487 70.802 222.351 70.897C221.483 71.7261 220.883 72.7953 220.626 73.9678C220.373 75.1339 220.241 76.3227 220.23 77.5158L219.205 76.1601C219.096 75.9956 218.957 75.8532 218.795 75.7405C218.664 75.6618 218.512 75.6225 218.378 75.5438C217.99 75.3235 217.838 74.8568 217.689 74.4372C217.274 73.2757 216.652 72.1989 215.853 71.2589C215.436 70.7685 214.951 70.2755 214.859 69.6382C214.832 69.3455 214.848 69.0504 214.906 68.7624C215.169 67.0447 215.449 65.2851 216.286 63.7615C216.677 63.0482 217.183 62.4031 217.558 61.6793C217.809 61.1994 218.163 59.9512 218.835 60.9424Z" fill="#3F3D56"/>
<path d="M192.965 62.5919C192.97 62.8126 192.914 63.0304 192.802 63.2212C192.702 63.3374 192.572 63.4234 192.425 63.4697C192.279 63.516 192.123 63.5208 191.974 63.4835C191.675 63.4085 191.394 63.2768 191.145 63.0954C190.414 62.6338 189.684 62.1714 188.953 61.7081C188.545 61.4622 188.152 61.1925 187.775 60.9004C187.2 60.4149 186.679 59.8689 186.22 59.2719C184.946 57.6985 183.818 55.9913 182.399 54.5517C182.014 54.1583 181.613 53.7807 181.24 53.369C180.731 52.7738 180.264 52.1448 179.84 51.4861C179.431 50.8803 179.006 50.209 179.077 49.4852C179.119 49.0761 179.316 48.6985 179.373 48.292C179.431 47.8856 179.276 47.3899 178.883 47.2798C178.836 47.2681 178.789 47.2602 178.741 47.2562C178.664 47.248 178.587 47.2313 178.513 47.2064C178.149 47.0543 178.204 46.4905 178.466 46.1941C178.728 45.8978 179.116 45.7326 179.355 45.4074C179.466 45.2145 179.59 45.0296 179.727 44.8541C179.903 44.7036 180.113 44.5982 180.338 44.5473C181.851 44.1015 183.451 44.0411 184.993 44.3716C185.255 44.4293 185.554 44.5342 185.633 44.7885C185.664 44.9125 185.664 45.0423 185.633 45.1662C185.517 45.6832 185.45 46.21 185.434 46.7396C185.433 46.85 185.439 46.9603 185.452 47.07C185.575 48.1819 186.296 49.1233 186.999 49.9913C187.833 51.0246 188.68 52.0499 189.53 53.0726C189.989 53.6653 190.503 54.214 191.064 54.7116C191.588 55.1469 192.267 55.4983 192.677 56.0569C193.01 56.508 192.902 57.1242 192.939 57.667C193.061 59.3061 193.07 60.9516 192.965 62.5919Z" fill="#3F3D56"/>
<path d="M226.269 73.5324C226.528 73.2806 226.762 73.0039 226.967 72.7064C227.187 72.3377 227.363 71.9442 227.491 71.5342L229.012 67.2204C229.254 66.5386 229.495 65.8541 229.799 65.1907C230.114 64.4747 230.486 63.7851 230.83 63.0928C231.713 61.2709 232.396 59.3584 232.867 57.3891C232.95 57.1185 232.978 56.834 232.948 56.5526C232.875 56.0989 232.531 55.7449 232.204 55.4223C231.874 55.0663 231.498 54.7558 231.087 54.4992C230.88 54.3706 230.649 54.2845 230.409 54.2458C230.169 54.207 229.923 54.2165 229.686 54.2737C229.015 54.4704 228.593 55.1575 228.438 55.8471C228.283 56.5368 228.341 57.2422 228.275 57.945C228.181 58.952 227.835 59.9249 227.751 60.9345C227.706 61.5193 227.751 62.1094 227.68 62.6915C227.551 63.456 227.284 64.1908 226.893 64.8602C226.041 66.4549 224.89 67.8706 223.503 69.0298C223.123 69.3104 222.781 69.6392 222.485 70.008C222.239 70.3768 222.072 70.793 221.995 71.23C221.821 71.8954 221.896 72.6016 222.207 73.2151C222.635 73.9441 223.455 74.2641 224.24 74.4267C225.299 74.6469 225.543 74.2851 226.269 73.5324Z" fill="#BE6F72"/>
<path d="M205.935 40.4065C206.161 39.9822 206.507 39.6339 206.929 39.4049C207.352 39.1759 207.832 39.0765 208.311 39.1189C208.793 39.2043 209.242 39.423 209.606 39.7502C209.971 40.0774 210.236 40.5 210.372 40.9703C210.496 41.361 210.545 41.7937 210.76 42.1294C211.086 42.6355 211.689 42.7824 212.14 43.1495C212.409 43.3997 212.626 43.7011 212.777 44.0361C212.928 44.3712 213.011 44.733 213.021 45.1005C213.046 45.8512 212.928 46.5997 212.672 47.306C212.564 47.6073 212.476 47.9157 212.41 48.229C212.358 48.5332 212.352 48.8427 212.305 49.1469C212.247 49.5413 212.111 49.9201 211.904 50.261C211.697 50.602 211.424 50.8981 211.101 51.132C211.009 51.207 210.895 51.2486 210.776 51.25C210.572 51.2264 210.446 50.9878 210.37 50.7727C209.953 49.5691 210.052 48.0979 209.284 47.1381C208.935 46.7509 208.512 46.4364 208.041 46.2124C207.849 46.0885 207.633 46.0071 207.406 45.9738C207.074 45.9917 206.754 46.1086 206.489 46.3094C205.935 46.6807 205.321 46.9523 204.674 47.1119C204.351 47.1884 204.015 47.1918 203.691 47.122C203.366 47.0521 203.062 46.9107 202.799 46.708C202.437 46.4091 202.172 45.9607 201.771 45.7273C201.37 45.4939 200.95 45.507 200.554 45.347C200.302 45.2397 200.077 45.0762 199.898 44.8689C199.718 44.6617 199.588 44.4162 199.518 44.1511C199.448 43.886 199.439 43.6084 199.492 43.3394C199.545 43.0704 199.659 42.8171 199.825 42.5988C200.087 42.2841 200.476 42.1058 200.709 41.757C201.01 41.306 200.984 40.6871 201.128 40.1469C201.214 39.8051 201.379 39.4886 201.612 39.2236C201.844 38.9586 202.136 38.7528 202.463 38.6233C202.781 38.5154 203.122 38.4947 203.45 38.5634C203.779 38.6322 204.083 38.7878 204.33 39.014C204.593 39.25 204.802 39.5542 205.059 39.8007C205.313 40.0436 205.624 40.2189 205.963 40.3105C206.302 40.4021 206.658 40.4072 207 40.3252" fill="#3F3D56"/>
<path opacity="0.1" d="M210.246 79.0053C210.094 79.1413 209.986 79.3201 209.936 79.5184C209.886 79.7167 209.898 79.9254 209.969 80.1172C210.026 80.2405 212.732 79.7186 213.018 79.6793C213.732 79.577 214.982 79.6268 215.462 78.9739C216.317 77.8174 213.669 78.0744 213.184 78.1164C212.26 78.195 210.949 78.3209 210.246 79.0053Z" fill="black"/>
<path d="M185.628 45.1767C185.512 45.6937 185.445 46.2205 185.428 46.7501C184.642 46.9101 183.823 46.6478 183.068 46.3856L180.899 45.6461C180.768 45.5618 180.608 45.5308 180.455 45.5596C180.301 45.5883 180.163 45.6746 180.071 45.8008C179.722 46.1627 179.242 46.8497 178.76 47.2562C178.682 47.248 178.605 47.2313 178.531 47.2064C178.167 47.0543 178.222 46.4905 178.484 46.1941C178.747 45.8978 179.135 45.7326 179.373 45.4074C179.484 45.2145 179.609 45.0296 179.746 44.8541C179.921 44.7036 180.131 44.5982 180.357 44.5473C181.869 44.1015 183.469 44.0411 185.011 44.3716C185.274 44.4293 185.573 44.5342 185.651 44.7885C185.677 44.9178 185.669 45.0515 185.628 45.1767Z" fill="#3F3D56"/>
<path opacity="0.1" d="M185.628 45.1767C185.512 45.6937 185.445 46.2205 185.428 46.7501C184.642 46.9101 183.823 46.6478 183.068 46.3856L180.899 45.6461C180.768 45.5618 180.608 45.5308 180.455 45.5596C180.301 45.5883 180.163 45.6746 180.071 45.8008C179.722 46.1627 179.242 46.8497 178.76 47.2562C178.682 47.248 178.605 47.2313 178.531 47.2064C178.167 47.0543 178.222 46.4905 178.484 46.1941C178.747 45.8978 179.135 45.7326 179.373 45.4074C179.484 45.2145 179.609 45.0296 179.746 44.8541C179.921 44.7036 180.131 44.5982 180.357 44.5473C181.869 44.1015 183.469 44.0411 185.011 44.3716C185.274 44.4293 185.573 44.5342 185.651 44.7885C185.677 44.9178 185.669 45.0515 185.628 45.1767Z" fill="black"/>
<path opacity="0.1" d="M205.466 94.9625C205.844 95.0883 206.253 95.2719 206.381 95.6495L203.344 94.8785L201.771 94.4773C201.493 94.4065 200.496 94.3252 200.313 94.1075C200.051 93.7876 200.982 94.0079 201.149 94.0315C201.658 94.1075 202.167 94.1862 202.673 94.278C203.628 94.4485 204.545 94.7291 205.466 94.9625Z" fill="black"/>
<path opacity="0.1" d="M206.643 97.6504C206.381 97.4747 205.629 97.4957 205.306 97.4196C204.834 97.3069 204.37 97.1574 203.906 97.0132C202.964 96.7063 202.031 96.3576 201.063 96.132C200.885 96.0927 200.276 96.0822 200.305 95.8567C200.334 95.6312 200.913 95.5525 201.058 95.542C201.915 95.4791 202.985 95.8803 203.782 96.1661C204.798 96.5301 205.761 97.0293 206.643 97.6504Z" fill="black"/>
<path opacity="0.1" d="M204.719 92.5656C203.756 92.3034 202.883 91.7055 201.892 91.5901C201.633 91.5999 201.379 91.5223 201.17 91.3698C201.054 91.2553 200.973 91.1096 200.937 90.9502C201.601 90.9161 202.372 91.1967 202.975 91.4616C203.307 91.604 203.626 91.7742 203.929 91.9703C204.149 92.1041 204.48 92.4895 204.719 92.5656Z" fill="black"/>
<path d="M223.065 69.085C222.902 70.1752 223.137 71.2876 223.728 72.2185C224.318 73.1494 225.224 73.8365 226.28 74.154C226.151 74.7755 225.509 75.1191 225.055 75.5622C224.415 76.1837 224.085 77.1147 223.33 77.5867C222.488 78.1112 221.405 77.9066 220.445 77.6864C220.358 77.6766 220.277 77.6345 220.219 77.5684C220.2 77.5369 220.185 77.5023 220.177 77.4661C219.86 76.3044 219.653 75.064 219.978 73.8997C220.24 72.9084 220.87 72.064 221.373 71.1881C221.877 70.3122 221.924 69.3734 223.065 69.085Z" fill="#3F3D56"/>
<path d="M199.618 54.0482C198.603 54.122 197.617 54.4222 196.733 54.9267C196.146 55.2623 195.543 55.7134 194.871 55.6321C194.476 55.5875 194.085 55.3698 193.699 55.4747C193.482 55.5623 193.28 55.6826 193.099 55.8314C193.007 55.9044 192.898 55.9525 192.782 55.9708C192.666 55.9892 192.548 55.9773 192.438 55.9363L192.176 59.5656C192.076 60.945 191.979 62.3532 192.309 63.6985C192.48 64.3856 192.855 65.0097 192.897 65.7072C192.939 66.4048 192.876 67.1207 192.926 67.8261C192.973 68.4791 193.117 69.1216 193.154 69.7745C193.227 71.0071 192.923 72.2291 192.629 73.4275C192.186 75.195 191.919 77.0018 191.056 78.6015C190.815 79.0446 190.531 79.4957 190.531 79.9992C190.531 80.0621 190.531 80.1224 190.547 80.1828C190.285 80.327 190.041 80.4634 189.818 80.605C189.32 80.9275 188.788 81.2868 188.583 81.8453C188.418 82.299 188.494 82.8182 188.295 83.2562C188.095 83.6941 187.639 84.0062 187.539 84.4782C187.469 84.8217 187.605 85.1836 187.539 85.5272C187.48 85.7049 187.432 85.8862 187.395 86.07C187.369 86.4633 187.702 86.7807 188.032 86.9957C188.514 87.3133 189.046 87.5473 189.606 87.688L191.171 81.473C192.599 78.8339 193.786 76.0719 194.719 73.2204C194.986 72.2883 195.329 71.3796 195.745 70.5036C196.042 70.008 196.304 69.4928 196.531 68.9616C196.77 68.3008 196.794 67.5849 196.909 66.8873C197.046 66.0732 197.252 65.2722 197.525 64.4931C197.809 63.6513 198.136 62.8121 198.194 61.9284C198.281 60.6644 197.822 59.3296 198.309 58.16C198.516 57.7223 198.786 57.3168 199.109 56.9564C199.786 56.1277 200.402 55.2597 201.079 54.431C200.727 54.056 200.142 54.0167 199.618 54.0482Z" fill="#3F3D56"/>
<g opacity="0.1">
<path opacity="0.1" d="M207.008 39.5438L206.68 39.5674L206.643 39.5936C206.766 39.5887 206.888 39.572 207.008 39.5438Z" fill="black"/>
<path opacity="0.1" d="M213.008 44.9878C212.953 45.5092 212.841 46.0228 212.672 46.5193C212.564 46.8206 212.476 47.129 212.41 47.4424C212.358 47.7466 212.352 48.056 212.305 48.3602C212.247 48.7546 212.111 49.1334 211.904 49.4744C211.697 49.8153 211.424 50.1114 211.101 50.3453C211.009 50.4203 210.895 50.4619 210.776 50.4633C210.572 50.4397 210.446 50.2011 210.37 49.9861C209.953 48.7824 210.052 47.3112 209.284 46.3514C208.935 45.9643 208.512 45.6497 208.041 45.4257C207.849 45.3018 207.633 45.2205 207.406 45.1871C207.074 45.205 206.754 45.3219 206.489 45.5228C205.935 45.894 205.321 46.1656 204.674 46.3252C204.351 46.4017 204.015 46.4052 203.691 46.3353C203.366 46.2654 203.062 46.124 202.799 45.9214C202.437 45.6224 202.172 45.174 201.771 44.9406C201.37 44.7072 200.95 44.7203 200.554 44.5604C200.307 44.4547 200.086 44.2947 199.909 44.0922C199.732 43.8898 199.603 43.65 199.531 43.3908C199.522 43.3581 199.515 43.3248 199.511 43.2911C199.445 43.5839 199.452 43.8882 199.531 44.1775C199.603 44.4367 199.732 44.6765 199.909 44.879C200.086 45.0814 200.307 45.2414 200.554 45.3471C200.95 45.507 201.396 45.5097 201.771 45.7273C202.146 45.945 202.437 46.4091 202.799 46.7081C203.062 46.9107 203.366 47.0521 203.691 47.122C204.015 47.1919 204.351 47.1884 204.674 47.1119C205.321 46.9523 205.935 46.6807 206.489 46.3095C206.754 46.1086 207.074 45.9917 207.406 45.9738C207.633 46.0072 207.849 46.0886 208.041 46.2125C208.506 46.4408 208.922 46.7579 209.266 47.146C210.034 48.1058 209.934 49.577 210.351 50.7806C210.427 50.9983 210.553 51.2343 210.758 51.2579C210.884 51.2586 211.006 51.2139 211.101 51.132C211.426 50.8975 211.699 50.6002 211.907 50.2579C212.114 49.9155 212.25 49.5351 212.308 49.139C212.355 48.8348 212.36 48.5254 212.413 48.2212C212.479 47.9079 212.566 47.5995 212.675 47.2981C212.93 46.5919 213.049 45.8433 213.024 45.0927C213.018 45.0612 213.013 45.0245 213.008 44.9878Z" fill="black"/>
</g>
<path d="M196.416 66.0298L196.238 68.424C196.212 68.7492 195.59 76.4905 191.006 85.5377C187.073 93.2973 179.418 103.404 164.966 109.084C163.838 109.53 162.668 109.946 161.455 110.332L160.101 106.084C163.499 105.015 166.771 103.584 169.862 101.815C177.228 97.5612 182.955 91.4904 186.949 83.6784C189.068 79.5191 190.578 75.0768 191.434 70.4878H174.991V66.0298H196.416Z" fill="#00BAFC"/>
<path opacity="0.1" d="M163.196 109.087C177.645 103.407 185.302 93.3025 189.233 85.5429C193.817 76.4957 194.441 68.7597 194.465 68.4293L194.643 66.035H196.479L196.301 68.4293C196.277 68.7544 195.653 76.4957 191.069 85.5429C187.135 93.3025 179.481 103.407 165.031 109.087C163.904 109.532 162.733 109.949 161.517 110.337L161.339 109.779C161.972 109.553 162.591 109.323 163.196 109.087Z" fill="white"/>
<path d="M134.266 106.084L132.913 110.332C131.698 109.944 130.526 109.527 129.399 109.081C114.949 103.401 107.292 93.2973 103.361 85.5377C98.7771 76.4905 98.1529 68.7544 98.1293 68.424L97.951 66.0298H119.365V70.4878H102.92C103.78 75.0774 105.295 79.5196 107.418 83.6784C111.412 91.4904 117.136 97.5613 124.503 101.812C127.594 103.583 130.867 105.015 134.266 106.084Z" fill="#00BAFC"/>
<path opacity="0.1" d="M131.166 109.087C116.717 103.407 109.059 93.3025 105.129 85.5429C100.545 76.4957 99.9205 68.7597 99.8969 68.4293L99.7185 66.035H97.8829L98.0612 68.4293C98.0848 68.7544 98.7089 76.4957 103.293 85.5429C107.226 93.3025 114.881 103.407 129.33 109.087C130.458 109.532 131.629 109.949 132.844 110.337L133.023 109.779C132.392 109.553 131.773 109.323 131.166 109.087Z" fill="white"/>
<path d="M171.92 147.15V171.19H122.444V147.15L124.017 145.052C140.051 139.362 143.3 124.522 143.948 118.65C144.044 117.839 144.099 117.023 144.113 116.206H150.231C150.244 117.023 150.3 117.839 150.396 118.65C151.054 124.522 154.303 139.367 170.326 145.052L171.92 147.15Z" fill="#00BAFC"/>
<path opacity="0.1" d="M171.92 147.15H122.444V150.166H171.92V147.15Z" fill="black"/>
<path opacity="0.1" d="M126.64 145.052C142.673 139.362 145.922 124.522 146.57 118.65C146.666 117.839 146.721 117.023 146.735 116.206H144.113C144.099 117.023 144.044 117.839 143.948 118.65C143.289 124.522 140.04 139.367 124.017 145.052L122.444 147.15V171.19H125.066V147.15L126.64 145.052Z" fill="white"/>
<path opacity="0.1" d="M114.928 66.0298H119.365V70.4878H115.322C115.163 69.0193 115.031 67.5333 114.928 66.0298Z" fill="black"/>
<path opacity="0.1" d="M134.266 106.084L132.913 110.332C131.698 109.944 130.526 109.527 129.399 109.081C127.544 106.816 125.905 104.382 124.503 101.812C127.594 103.583 130.867 105.015 134.266 106.084Z" fill="black"/>
<path opacity="0.1" d="M160.099 106.084C163.496 105.015 166.768 103.584 169.859 101.815C168.457 104.385 166.817 106.82 164.963 109.087C163.836 109.532 162.665 109.948 161.452 110.335L160.099 106.084Z" fill="black"/>
<path opacity="0.1" d="M179.434 66.0298C179.33 67.5333 179.199 69.0193 179.04 70.4878H174.999V66.0298H179.434Z" fill="black"/>
<path opacity="0.1" d="M150.406 118.65C148.277 119.063 146.088 119.063 143.958 118.65C144.054 117.839 144.11 117.023 144.123 116.206H150.241C150.255 117.023 150.31 117.839 150.406 118.65Z" fill="black"/>
<path d="M115.453 58.6451C115.566 91.7028 129.726 118.435 147.184 118.435C164.641 118.435 178.799 91.7028 178.914 58.6451H115.453Z" fill="#00BAFC"/>
<path opacity="0.1" d="M121.091 58.6451H115.453C115.566 91.7028 129.726 118.435 147.184 118.435C148.128 118.434 149.071 118.354 150.003 118.197C133.865 115.501 121.198 89.9039 121.091 58.6451Z" fill="white"/>
<path d="M164.009 156.352H130.356V165.006H164.009V156.352Z" fill="#3F3D56"/>
<path opacity="0.1" d="M131.929 157.532H164.009V156.352H130.356V165.006H131.929V157.532Z" fill="white"/>
<path d="M97.5053 90.5621C96.8995 90.3602 93.3331 87.5385 93.063 86.2614C92.7929 84.9843 94.9485 73.0866 94.9485 73.0866C94.9485 73.0866 94.7492 73.0866 94.424 73.0473V72.8558L94.8672 57.2264C94.8672 57.2264 96.6845 46.7369 93.2518 47.348C89.8191 47.959 91.9721 57.2264 91.9721 57.2264C91.9721 57.2264 91.5813 61.931 91.306 63.3418C91.0437 64.7028 89.8427 70.2466 90.6609 71.9695C90.6908 72.0307 90.7241 72.0902 90.7605 72.1478C90.7605 72.1478 90.8969 78.0612 89.4153 78.8689C88.0018 79.6373 87.4144 83.5053 87.3646 83.8514L87.2885 83.82C86.8665 83.5559 86.496 83.2174 86.195 82.8209C86.1635 82.7815 86.1399 82.7396 86.1111 82.6976C87.0759 81.6122 87.5959 80.2028 87.5672 78.7508C87.5385 77.2988 86.9633 75.9111 85.9563 74.8646C85.4881 74.3783 84.9389 73.9772 84.3331 73.6793C84.3155 73.1782 84.1968 72.6858 83.9843 72.2317C83.3025 70.7737 79.5263 68.8672 76.8436 68.8226C75.6058 68.7859 74.5909 69.1373 74.2212 70.1049C74.0324 70.5953 74.0901 71.1539 74.0114 71.6626C73.8541 72.7116 73.1801 73.5324 72.3147 74.1854C71.9653 73.7953 71.5875 73.4315 71.1845 73.0971C70.3086 72.4258 68.5621 70.2125 68.5621 70.2125C68.5621 70.2125 63.1102 64.5665 62.7063 63.0193C62.3025 61.4721 56.8558 52.181 55.6443 53.799C54.4327 55.417 59.8165 62.4686 59.8165 62.4686C59.8165 62.4686 60.8392 65.0306 61.6259 65.896C62.4126 66.7614 68.4441 75.5202 68.4441 75.5202L68.7326 76.1181C67.4581 76.7894 66.2937 77.6443 65.882 78.9764C65.2789 80.938 66.5979 82.91 67.5105 84.7457C69.2885 88.3278 69.5429 92.896 67.2483 96.1688C65.1923 99.0586 61.6259 100.433 58.2876 101.634C59.8998 102.9 61.9027 103.565 63.952 103.514C63.181 105.748 60.4485 106.488 58.1198 106.902C59.3418 108.077 61.0909 108.504 62.7693 108.764C63.5912 108.904 64.4241 108.97 65.2579 108.961H65.4624L65.667 108.945C65.9512 108.926 66.2341 108.89 66.514 108.837C67.7256 108.591 68.903 107.93 69.5219 106.86C70.0464 105.945 70.2299 104.697 71.1819 104.238C71.4297 104.126 71.6968 104.063 71.9686 104.052H71.9397C72.118 104.052 72.3016 104.052 72.4799 104.052L76.4476 104.091C76.6128 104.091 76.7833 104.091 76.9537 104.091C78.0735 104.065 79.2693 103.871 79.8383 102.945C80.0724 102.495 80.1956 101.996 80.1976 101.49C80.2815 100.233 80.1976 98.9406 80.2317 97.674C80.57 99.9791 80.924 103.572 80.0822 104.899C79.3983 105.904 78.5694 106.803 77.6224 107.566C77.3842 107.766 77.1664 107.989 76.9721 108.232C76.8436 108.323 76.7675 108.373 76.7675 108.373L76.6862 108.617C76.3873 109.07 76.1707 109.573 76.0464 110.101C76.0006 110.237 75.9836 110.381 75.9965 110.524C76.0883 110.71 75.3409 111.478 75.5586 111.801C73.6915 113.99 73.3375 117.308 73.3375 117.308L69.9284 122.484C68.1766 127.087 65.5542 127.559 65.5542 127.559C65.5542 127.559 59.3943 123.426 59.2264 123.224C59.0586 123.022 56.7037 122.012 56.7037 122.012C56.4261 121.525 56.0022 121.138 55.4922 120.906C54.6845 120.57 54.6163 119.332 54.6163 119.332C54.5166 116.408 52.799 116.185 52.799 116.185C51.4144 116.067 50.3575 116.314 49.5446 116.765L49.2981 116.783C48.1075 116.88 46.6757 116.988 45.1023 117.093C40.7256 117.381 39.6845 120.216 39.6845 120.216C39.6845 120.216 39.1469 120.822 39.8523 121.477C40.5577 122.133 45.0735 121.477 45.2649 121.462C44.9207 121.499 44.5727 121.475 44.2369 121.391C44.9476 121.365 45.9257 121.338 46.7596 121.338H46.9616C46.9091 121.78 46.8837 122.225 46.8855 122.671C46.8855 123.51 49.2063 124.047 49.2063 124.047L56.2736 130.341C56.2736 130.341 60.7159 132.326 63.5429 135.182C66.3698 138.038 68.8689 135.573 68.8689 135.573C71.861 134.833 80.4703 124.425 80.4782 124.414C80.4782 124.719 80.6591 134.841 81.0027 136.873C81.0163 136.976 81.0418 137.078 81.0787 137.175C81.4826 138.048 80.9423 140.434 80.709 141.441C80.5601 142.284 80.5029 143.141 80.5385 143.996C80.5385 143.996 77.3103 156.321 77.5778 157.404C77.8453 158.487 75.8287 163.519 75.8287 163.519V167.715L76.1801 167.697C76.1344 167.764 76.0924 167.834 76.0542 167.907L76.0306 167.951C76.0306 167.951 78.1836 168.42 79.6312 168.287C81.0787 168.153 83.5647 169.401 83.5647 169.401C83.5647 169.401 84.4065 169.8 86.9974 169.968C89.5883 170.136 89.5883 168.824 89.5883 168.824C89.292 167.038 85.1985 166.441 85.0726 166.422C84.7422 166.215 84.4327 165.99 84.1784 165.795L84.1259 165.754C84.1431 165.714 84.158 165.674 84.1705 165.633C84.6084 163.85 82.1854 163.076 82.1854 163.076V162.641C83.7588 161.833 84.0708 156.289 84.0708 156.289C84.0708 156.289 86.431 149.434 86.7614 148.291C87.0918 147.148 86.7614 145.435 86.7614 145.435L86.9974 143.956C86.9974 143.956 87.5035 142.949 87.5035 142.747C87.569 142.236 87.766 141.75 88.0752 141.337C88.445 140.899 87.6714 139.858 87.6714 139.858L88.3453 138.111V136.194L89.9188 129.24C89.9188 129.24 91.5682 121.139 90.9965 118.488C90.4249 115.837 91.6705 114.489 91.6705 114.489C91.5582 114.548 91.4426 114.6 91.3243 114.646C91.4818 114.282 91.6175 113.909 91.7308 113.529L95.271 113.967V114.019H96.5481C96.5481 114.019 96.1443 109.037 96.1443 107.028C96.1443 105.019 97.5053 97.8104 97.5053 97.8104C97.5053 97.8104 98.1111 90.764 97.5053 90.5621ZM81.7894 84.7457C81.7894 84.9424 81.771 85.1469 81.7579 85.3567L81.6871 85.4642L81.556 85.3541L81.396 85.6032L81.3488 85.6268C81.0027 85.4485 80.8243 84.4284 80.5752 84.6487L80.5411 84.6775C80.4861 84.6146 80.431 84.5962 80.3733 84.6487L80.3208 84.6932C80.3208 84.6172 80.3208 84.5385 80.3208 84.4598C80.8006 84.5833 81.294 84.6459 81.7894 84.646C81.792 84.6801 81.7894 84.7142 81.7894 84.7457ZM93.5639 107.948H93.6399L93.514 108.279C93.5298 108.169 93.5455 108.061 93.5639 107.948ZM80.6381 167.416L80.1556 167.295L80.4179 167.251L80.6618 167.411L80.6906 167.432L80.6381 167.416ZM85.5682 166.711C85.4083 166.627 85.2457 166.53 85.0883 166.43C85.1408 166.459 85.3479 166.566 85.5682 166.711Z" fill="url(#paint1_linear)"/>
<path d="M95.3051 102.995L92.1294 111.271H92.9003L89.9135 113.652L95.3051 114.323V102.995Z" fill="#F86D70"/>
<path opacity="0.1" d="M95.3051 102.995L92.1294 111.271L91.3295 111.056L89.9135 113.652L95.3051 114.323V102.995Z" fill="black"/>
<path d="M90.3252 108.289H95.3051L97.1329 93.2501H90.3252V108.289Z" fill="#F86D70"/>
<path opacity="0.1" d="M90.3252 108.289H95.3051L97.1329 93.2501H90.3252V108.289Z" fill="black"/>
<path d="M80.5987 96.8112L81.6739 96.6302L84.1442 96.2107C84.1442 96.2107 91.5629 94.5376 93.0944 94.4012C94.0221 94.2787 94.9269 94.0207 95.7797 93.6355C96.1809 93.4624 96.4353 93.3313 96.4353 93.3313L93.7631 88.4511L89.6171 85.3776C89.6171 85.3776 86.9947 84.8191 85.8855 83.2929C85.6379 82.9645 85.4767 82.5792 85.4167 82.1723C85.3567 81.7655 85.3997 81.3501 85.5419 80.9642C86.2185 78.8663 81.5008 82.9703 81.5008 82.9703C81.5008 82.9703 81.5454 83.9537 81.5008 85.2072C81.5008 85.4537 81.4772 85.7107 81.4589 85.9729C81.4589 86.146 81.4353 86.3191 81.4169 86.4974C81.3015 87.743 81.0655 89.0254 80.5987 89.7911C79.458 91.6635 80.5987 96.8112 80.5987 96.8112Z" fill="#FBBEBE"/>
<path opacity="0.1" d="M81.5009 85.3121H81.6058C81.7946 85.3121 81.9467 84.9109 82.1302 84.8925C83.6066 84.7509 84.9545 84.4415 85.8907 83.3951C85.6438 83.0669 85.483 82.6821 85.423 82.2758C85.363 81.8695 85.4057 81.4546 85.5472 81.0691C86.2238 78.9712 81.5061 83.0726 81.5061 83.0726C81.5061 83.0726 81.5559 84.0586 81.5009 85.3121Z" fill="black"/>
<path d="M75.7579 79.3646C75.7575 80.1195 75.906 80.8672 76.1947 81.5647C76.4835 82.2623 76.9069 82.8961 77.4407 83.43C77.9746 83.9638 78.6084 84.3872 79.306 84.676C80.0035 84.9647 80.7512 85.1132 81.5061 85.1128C81.6949 85.1128 81.8811 85.1128 82.0673 85.0866C83.1749 84.9779 84.2272 84.5501 85.0963 83.855C85.9655 83.1599 86.6142 82.2275 86.9636 81.1708C87.3131 80.1142 87.3483 78.9788 87.065 77.9026C86.7817 76.8263 86.1921 75.8554 85.3677 75.1078C84.5433 74.3602 83.5196 73.8679 82.4209 73.6908C81.3221 73.5137 80.1956 73.6594 79.1781 74.1101C78.1605 74.5608 77.2957 75.2973 76.6885 76.23C76.0814 77.1627 75.7581 78.2517 75.7579 79.3646Z" fill="#FBBEBE"/>
<path d="M73.993 70.64C73.8042 71.1277 73.8619 71.6732 73.7859 72.1898C73.5053 74.0543 71.6093 75.1714 69.8943 75.9529C68.1792 76.7344 66.2439 77.6601 65.6985 79.4616C65.1006 81.4101 66.4065 83.3637 67.3138 85.1915C69.0813 88.7527 69.3331 93.2947 67.0516 96.5517C65.0245 99.4363 61.4922 100.805 58.167 102.006C59.7673 103.265 61.7564 103.927 63.792 103.879C63.0289 106.1 60.3147 106.837 58.0018 107.246C59.2159 108.415 60.9546 108.84 62.6198 109.097C63.834 109.286 65.0796 109.409 66.2911 109.165C67.5027 108.921 68.6513 108.263 69.2754 107.198C69.7999 106.289 69.9782 105.048 70.9249 104.589C71.3522 104.421 71.8126 104.354 72.2701 104.393L76.2037 104.435C77.4284 104.435 78.8785 104.34 79.5105 103.294C79.7436 102.847 79.8659 102.35 79.8672 101.846C80.0376 99.2658 79.542 96.5385 80.6041 94.1836C80.924 93.473 78.8707 92.348 79.0857 91.5954C79.8252 89.0071 80.0114 86.9695 80.0035 84.2763C80.0035 82.1915 81.3593 80.3952 82.4791 78.6356C83.5988 76.876 84.535 74.6548 83.6513 72.7667C82.6548 70.6609 75.1705 67.6006 73.993 70.64Z" fill="#3F3D56"/>
<path d="M79.2299 166.661L80.2316 167.324L80.3864 167.427L80.4152 167.445L81.6031 168.232L84.3776 168.699L86.8164 168.531C86.8164 168.531 87.5192 167.062 86.4152 167.096C86.0616 167.078 85.717 166.979 85.4082 166.805L85.2561 166.729C85.0961 166.645 84.9362 166.551 84.7788 166.451C84.4511 166.244 84.1416 166.019 83.8925 165.827C83.5254 165.544 83.2815 165.329 83.2815 165.329L79.2299 166.661Z" fill="#FBBEBE"/>
<path opacity="0.1" d="M80.2448 167.324L80.3995 167.427L80.4283 167.445L81.6163 168.232L84.3907 168.699L86.8295 168.531C86.8295 168.531 87.5323 167.062 86.4283 167.096C86.0747 167.078 85.7301 166.979 85.4213 166.805C85.6154 166.957 85.778 167.122 85.7937 167.261C85.8383 167.636 83.9895 168.31 83.9895 168.31L81.3829 167.621C81.3829 167.621 80.9397 167.495 80.3339 167.338L80.2762 167.322L80.2448 167.324Z" fill="black"/>
<path d="M75.7867 167.964C75.7867 167.964 77.924 168.431 79.361 168.297C80.7981 168.163 83.2736 169.401 83.2736 169.401C83.2736 169.401 84.1101 169.795 86.6827 169.962C89.2552 170.13 89.2552 168.824 89.2552 168.824C88.9615 167.049 84.8969 166.464 84.771 166.438C84.8208 166.464 85.0332 166.572 85.2483 166.716C85.5367 166.905 85.8488 167.151 85.8724 167.351C85.917 167.723 84.0682 168.4 84.0682 168.4L81.4615 167.712C81.4615 167.712 81.0184 167.584 80.4126 167.427H80.3549C79.4567 167.182 78.5441 166.994 77.6224 166.863C76.5 166.742 75.9257 167.697 75.8077 167.912C75.7991 167.929 75.7921 167.946 75.7867 167.964Z" fill="#3F3D56"/>
<path d="M42.0996 120.806L43.2351 121.677C43.2351 121.677 43.5655 121.661 44.0585 121.645H44.2159C44.9213 121.619 45.8942 121.593 46.7203 121.593C47.2542 121.569 47.7893 121.599 48.3173 121.682C48.8837 121.881 49.8907 118.441 49.8907 118.441L48.7526 118.178L48.375 118.089L48.1127 118.026L47.187 117.809L44.3811 118.129L42.4091 119.398L42.0996 120.806Z" fill="#FBBEBE"/>
<path opacity="0.1" d="M42.0996 120.806L43.2351 121.677C43.2351 121.677 43.5655 121.661 44.0585 121.645C43.8323 121.558 43.6458 121.391 43.5341 121.176C42.7998 119.138 46.4423 118.268 46.4423 118.268L48.139 118.194L48.4694 118.178H48.7316L48.354 118.089L48.0918 118.026L47.1661 117.809L44.3601 118.129L42.3881 119.398L42.0996 120.806Z" fill="black"/>
<path d="M39.8601 121.727C40.5472 122.361 45.0472 121.727 45.236 121.711C44.8945 121.749 44.5488 121.725 44.2159 121.64C44.0511 121.61 43.8949 121.545 43.7588 121.447C43.6227 121.349 43.5101 121.223 43.4292 121.076C42.6949 119.036 46.3374 118.168 46.3374 118.168L48.0341 118.095L48.3619 118.079L52.4869 117.9L52.6862 116.765C52.6862 116.765 51.3461 116.891 49.243 117.059C48.0603 117.156 46.6206 117.263 45.0655 117.366C40.7203 117.654 39.687 120.473 39.687 120.473C39.687 120.473 39.1599 121.076 39.8601 121.727Z" fill="#3F3D56"/>
<path d="M90.3278 72.5045C90.3557 72.5667 90.3891 72.6264 90.4275 72.6828L91.4292 74.1513L94.0359 74.4136L94.0647 73.3804L94.5026 57.8349C94.5026 57.8349 96.3068 47.4083 92.8978 48.0089C89.4887 48.6094 91.6285 57.8349 91.6285 57.8349C91.6285 57.8349 91.2404 62.5132 90.9677 63.9188C90.7028 65.2772 89.5149 70.7999 90.3278 72.5045Z" fill="#FBBEBE"/>
<path d="M84.4773 111.116L85.2194 112.386L86.8794 115.226C86.8794 115.226 89.8899 116.33 90.6608 115.488C91.083 115.029 91.5393 113.427 91.8593 112.079C92.1215 110.988 92.2972 110.067 92.2972 110.067L84.4773 111.116Z" fill="#FBBEBE"/>
<path opacity="0.1" d="M84.4773 111.116L85.2194 112.386C85.2659 112.345 85.3081 112.301 85.3453 112.252C86.1844 111.182 89.8794 112.024 91.8593 112.092C92.1215 111.001 92.2972 110.08 92.2972 110.08L84.4773 111.116Z" fill="black"/>
<path opacity="0.1" d="M46.7203 121.588C47.2542 121.564 47.7893 121.593 48.3173 121.677C48.8837 121.876 49.8907 118.435 49.8907 118.435L48.375 118.079L52.5 117.9L52.6993 116.765C52.6993 116.765 51.3592 116.891 49.2561 117.059C48.8215 117.309 48.4338 117.633 48.1101 118.016L48.0472 118.095C47.1687 119.172 46.8435 120.562 46.7203 121.588Z" fill="black"/>
<path opacity="0.1" d="M79.2299 166.661L80.3864 167.427C82.1119 167.115 83.688 166.624 83.8741 165.853C83.875 165.841 83.875 165.829 83.8741 165.817C83.507 165.533 83.2631 165.318 83.2631 165.318L79.2299 166.661Z" fill="black"/>
<path opacity="0.1" d="M75.8103 167.92C77.3341 167.844 78.8523 167.681 80.3575 167.432C79.4586 167.185 78.5451 166.995 77.6224 166.863C76.5026 166.742 75.9283 167.697 75.8103 167.92Z" fill="black"/>
<path d="M46.8461 122.912C46.8461 123.748 49.1512 124.283 49.1512 124.283L56.1713 130.532C56.1713 130.532 60.5822 132.504 63.3881 135.344C66.194 138.184 68.6696 135.746 68.6696 135.746C71.6433 135.011 80.208 124.65 80.208 124.65C80.208 124.65 80.4073 136.483 80.8085 137.351C81.2098 138.219 80.6748 140.592 80.4414 141.596C80.2942 142.434 80.2379 143.285 80.2736 144.135C80.2736 144.135 77.0664 156.399 77.3339 157.469C77.6014 158.539 75.5953 163.553 75.5953 163.553V167.731C75.5953 167.731 83.4493 167.429 83.882 165.659C84.3147 163.889 81.9126 163.118 81.9126 163.118V162.683C83.486 161.88 83.7823 156.368 83.7823 156.368C83.7823 156.368 86.1241 149.55 86.4572 148.414C86.7902 147.279 86.4572 145.572 86.4572 145.572L86.6905 144.103C86.6905 144.103 87.1914 143.099 87.1914 142.899C87.2569 142.391 87.4529 141.907 87.7605 141.497C88.1276 141.061 87.3592 140.025 87.3592 140.025L88.028 138.287V136.383L89.6014 129.465C89.6014 129.465 91.2404 121.409 90.6713 118.768C90.1023 116.128 91.34 114.793 91.34 114.793C88.6573 116.198 87.3042 113.07 86.861 111.725C86.7482 111.378 86.6932 111.148 86.6932 111.148C86.6932 111.148 83.0087 109.789 79.5787 110.114C78.882 110.171 78.1955 110.316 77.5358 110.547C73.7255 111.919 73.125 117.599 73.125 117.599L69.75 122.747C68.0114 127.325 65.4047 127.792 65.4047 127.792C65.4047 127.792 59.2893 123.683 59.111 123.481C58.9327 123.279 56.604 122.277 56.604 122.277C56.3287 121.792 55.9075 121.407 55.4003 121.176C54.5979 120.84 54.5323 119.602 54.5323 119.602C54.4327 116.694 52.7281 116.455 52.7281 116.455C46.8121 115.962 46.8461 122.078 46.8461 122.912Z" fill="#3F3D56"/>
<path d="M80.8689 106.572H84.4772V95.3768H80.8689V106.572Z" fill="#F86D70"/>
<path opacity="0.1" d="M80.8689 106.572H84.4772V95.3768H80.8689V106.572Z" fill="black"/>
<path opacity="0.1" d="M90.3252 72.4808C90.3246 72.4887 90.3246 72.4966 90.3252 72.5044C90.3531 72.5667 90.3864 72.6264 90.4248 72.6828L91.4266 74.1513L94.0332 74.4135L94.0621 73.3803C93.2491 73.3174 91.3977 73.0945 90.3252 72.4808Z" fill="black"/>
<path d="M90.4275 72.6829C90.4275 72.6829 90.5612 78.5622 89.0901 79.3647C87.6189 80.1671 87.0472 84.3472 87.0472 84.3472C87.0472 84.3472 91.5053 87.279 92.4992 88.5692C93.4931 89.8594 95.7745 92.9329 95.3051 93.6671C94.8357 94.4014 96.4432 97.7449 96.4432 97.7449C96.4432 97.7449 93.5009 103.761 94.1696 106.034C94.8383 108.308 94.9039 114.321 94.9039 114.321H96.1757C96.1757 114.321 95.7745 109.375 95.7745 107.369C95.7745 105.363 97.1093 98.2117 97.1093 98.2117C97.1093 98.2117 97.7125 91.1942 97.1093 90.9949C96.5062 90.7956 92.9659 87.9871 92.6985 86.7152C92.431 85.4434 94.5708 73.6033 94.5708 73.6033C94.5708 73.6033 91.8305 73.4853 90.4275 72.6829Z" fill="#F86D70"/>
<path opacity="0.1" d="M80.8007 94.3384C80.9227 95.1565 81.2206 95.9385 81.674 96.6304L84.1442 96.2108C84.1442 96.2108 91.5629 94.5377 93.0944 94.4014C94.0222 94.2789 94.9269 94.0209 95.7797 93.6356C95.1919 91.5528 94.0446 89.6708 92.4624 88.1942L91.521 87.321C90.1337 86.033 88.5259 85.0052 86.7745 84.2869C86.8846 84.3786 94.6678 91.0237 92.9633 92.3271C91.2587 93.6304 86.6696 90.4573 86.6696 90.4573L81.4511 85.973L81.2622 85.8105L80.9607 86.2799C81.1141 86.343 81.2638 86.4148 81.4091 86.4949C83.1876 87.4711 84.5075 89.1116 85.0804 91.0578C86.153 94.6636 80.8007 94.3384 80.8007 94.3384Z" fill="black"/>
<path d="M79.1958 111.048C79.1958 111.048 84.1416 113.789 85.3427 112.252C85.6049 111.914 86.1582 111.767 86.8479 111.727C86.7351 111.381 86.6801 111.15 86.6801 111.15C86.6801 111.15 82.9956 109.792 79.5656 110.117C79.34 110.684 79.1958 111.048 79.1958 111.048Z" fill="#444053"/>
<path d="M81.472 85.8157L86.8794 90.4678C86.8794 90.4678 91.4502 93.6513 93.1731 92.3375C94.896 91.0237 86.9816 84.2947 86.9816 84.2947C88.7293 85.0152 90.3355 86.0398 91.7255 87.3209L92.667 88.1942C95.1425 90.4887 95.7011 90.4887 95.785 93.8611C95.806 94.6924 95.5227 95.8856 95.3051 96.1006C94.5026 96.8873 93.9414 102.601 94.0647 103.27C94.1879 103.939 92.5699 109.711 93.0944 111.316C93.6189 112.921 86.5385 110.513 85.34 112.053C84.1416 113.592 79.1958 110.849 79.1958 110.849C79.1958 110.849 81.9362 103.829 82.6049 103.362C83.2736 102.895 84.076 99.2842 82.6049 97.6137C81.1337 95.9433 81.0026 94.3384 81.0026 94.3384C81.0026 94.3384 86.3523 94.6688 85.2797 91.063C84.978 90.0179 84.4545 89.0501 83.7449 88.2256C83.0353 87.401 82.1563 86.7392 81.1678 86.2851L81.472 85.8157Z" fill="#E8E8F0"/>
<path opacity="0.1" d="M88.6888 97.6477C88.6888 97.6477 86.6145 101.558 83.9318 102.573C83.8453 102.604 83.7614 102.633 83.6696 102.659C80.8689 103.511 88.8986 98.8592 88.6888 97.6477Z" fill="black"/>
<path d="M59.6801 63.056C59.6801 63.056 60.6818 65.5971 61.4843 66.4651C62.2867 67.3331 68.2343 76.0237 68.2343 76.0237L68.7378 77.0726L69.1705 77.9669L72.9808 77.5656L73.243 76.0289L73.0962 75.8506C72.7133 75.3917 71.6696 74.1592 70.9694 73.6216C70.1014 72.9555 68.3628 70.7501 68.3628 70.7501C68.3628 70.7501 62.9502 65.1329 62.5489 63.5962C62.1477 62.0595 56.7325 52.8445 55.5315 54.4389C54.3304 56.0333 59.6801 63.056 59.6801 63.056Z" fill="#FBBEBE"/>
<g opacity="0.1">
<path opacity="0.1" d="M70.736 104.393C70.2787 104.353 69.8183 104.419 69.3908 104.587C68.4467 105.046 68.2684 106.286 67.7439 107.196C67.1303 108.261 65.9607 108.919 64.757 109.163C64.5178 109.209 64.2761 109.242 64.0332 109.262C64.7999 109.337 65.5732 109.303 66.3304 109.163C67.5341 108.919 68.7037 108.261 69.3173 107.196C69.8418 106.286 70.0201 105.046 70.9642 104.587C71.2121 104.475 71.4792 104.413 71.7509 104.403L70.736 104.393Z" fill="black"/>
<path opacity="0.1" d="M80.0508 84.2764C80.0508 82.1916 81.4065 80.3952 82.5237 78.6356C83.6408 76.876 84.5796 74.6548 83.6959 72.7667C82.9406 71.154 78.3882 68.9905 75.7605 69.418C78.3331 69.751 81.5036 71.4451 82.1224 72.7667C83.0062 74.6548 82.0674 76.876 80.9502 78.6356C79.8331 80.3952 78.4721 82.1916 78.4773 84.2764C78.4773 86.9669 78.2964 88.9966 77.5569 91.5954C77.3445 92.3428 79.3925 93.473 79.0778 94.1811C78.0132 96.5412 78.5114 99.2632 78.341 101.844C78.3374 102.348 78.2143 102.844 77.9817 103.291C77.4572 104.154 76.382 104.377 75.3357 104.424H76.2509C77.4729 104.424 78.9231 104.33 79.5551 103.283C79.7877 102.836 79.9108 102.34 79.9144 101.836C80.0848 99.2554 79.5866 96.5307 80.6513 94.1732C80.9712 93.4652 78.9179 92.3375 79.1303 91.5875C79.8698 89.0071 80.056 86.9669 80.0508 84.2764Z" fill="black"/>
</g>
<path opacity="0.1" d="M68.7378 77.0674L69.1705 77.9616L72.9808 77.5604L73.243 76.0237L73.0962 75.8453C72.6897 76.0446 69.6451 77.5106 68.7378 77.0674Z" fill="black"/>
<path opacity="0.1" d="M82.8069 87.119C82.8069 87.119 81.8707 85.6504 81.3357 86.049C80.8007 86.4476 80.5936 84.8453 80.2868 85.1128C79.9799 85.3803 79.0857 86.1251 78.7133 85.084C78.4222 84.2553 75.2544 79.0132 73.9694 76.9048C73.639 76.3593 73.4319 76.0237 73.4319 76.0237C73.4319 76.0237 69.8235 77.8279 68.9555 77.2274V78.4966L69.6897 78.5648L73.6233 85.9074C73.6233 85.9074 74.8611 87.8768 74.7771 88.5639C74.6932 89.2509 76.3637 92.2588 76.6312 92.4581C76.8986 92.6574 79.778 96.0009 79.778 96.0009C79.778 96.0009 81.2492 103.22 79.9773 105.226C78.7055 107.233 76.5027 108.701 76.5027 108.701C76.5027 108.701 75.8392 110.639 75.9362 110.841C76.0333 111.043 75.1653 111.911 75.5665 112.178C75.9677 112.446 76.5027 114.316 76.5027 114.316C76.5027 114.316 78.375 111.308 79.3873 110.841C80.3995 110.374 81.695 104.222 81.695 104.222C81.695 104.222 82.0647 100.598 82.0936 98.2588C82.1224 95.9196 82.0044 87.119 82.8069 87.119Z" fill="black"/>
<path d="M82.6049 87.119C82.6049 87.119 81.6714 85.6504 81.1364 86.049C80.6014 86.4476 80.3916 84.8454 80.0875 85.1128C79.7833 85.3803 78.889 86.1251 78.514 85.084C78.2203 84.2553 75.0525 79.0132 73.7701 76.9048L73.2326 76.0237C73.2326 76.0237 69.6242 77.8279 68.7535 77.2274V78.4966L69.4904 78.5648L73.424 85.9074C73.424 85.9074 74.6644 87.8768 74.5778 88.5639C74.4913 89.2509 76.1513 92.2588 76.4319 92.4581C76.7124 92.6574 79.5787 96.001 79.5787 96.001C79.5787 96.001 81.0499 103.22 79.7806 105.226C79.1101 106.234 78.2945 107.137 77.3602 107.907C76.5753 108.554 76.023 109.44 75.7868 110.429C75.7412 110.564 75.7251 110.707 75.7396 110.849C75.8366 111.048 74.9686 111.919 75.3698 112.186C75.771 112.454 76.3112 114.331 76.3112 114.331C76.3112 114.331 78.1836 111.324 79.1958 110.857C80.2081 110.39 81.5062 104.238 81.5062 104.238C81.5062 104.238 81.8733 100.614 81.9048 98.2746C81.9362 95.9354 81.8182 87.119 82.6049 87.119Z" fill="#F86D70"/>
<path opacity="0.1" d="M73.4475 117.533C73.4475 117.533 76.2561 118.058 77.3811 118.868C78.5061 119.678 73.104 117.599 73.104 117.599L73.4475 117.533Z" fill="black"/>
<path opacity="0.1" d="M80.2002 124.651C80.2002 124.651 83.1294 127.092 82.6049 129.297C82.0804 131.503 80.7273 137.052 80.7273 137.052L80.2002 124.651Z" fill="black"/>
<path opacity="0.1" d="M54.5822 119.956C54.5822 119.956 50.4546 120.407 50.7221 120.942C50.9895 121.477 54.5822 120.449 54.5822 120.449V119.956Z" fill="black"/>
<path opacity="0.1" d="M86.2762 140.259C86.2762 140.259 86.5384 140.592 85.007 140.259C83.4755 139.926 84.6057 138.898 84.6057 138.898L86.2762 140.259Z" fill="black"/>
<path opacity="0.1" d="M85.7518 144.872C85.7518 144.872 83.6539 145.205 82.5289 144.872C81.4038 144.539 85.7518 144.872 85.7518 144.872Z" fill="black"/>
<path opacity="0.1" d="M81.4353 162.919C81.4353 162.919 81.0682 162.518 79.2299 163.252C77.3916 163.986 76.6574 164.02 76.1224 163.776C75.5874 163.532 81.4353 162.919 81.4353 162.919Z" fill="black"/>
<path opacity="0.1" d="M83.4755 119.387L80.8689 123.014C80.8689 123.014 82.2719 119.838 83.4755 119.387Z" fill="black"/>
<path opacity="0.1" d="M78.4091 86.049C78.4091 86.049 78.2963 87.2526 76.6154 87.722C74.9344 88.1914 74.6145 88.5717 74.6145 88.5717" fill="black"/>
<path opacity="0.1" d="M74.0402 77.3243C74.0402 77.3243 71.8216 78.8978 69.5061 78.5647L74.0402 77.3243Z" fill="black"/>
<path opacity="0.1" d="M75.729 111.014C75.729 111.014 76.3768 111.421 77.9318 109.643L75.729 111.014Z" fill="black"/>
<path opacity="0.1" d="M91.8803 92.1618C91.9432 91.8366 91.7177 91.535 91.5053 91.2807L91.0699 90.7562C90.9849 90.6488 90.8891 90.5504 90.7841 90.4625C90.5219 90.2605 90.1862 90.2002 89.9135 90.0193" fill="black"/>
<path opacity="0.1" d="M232.681 0.743105C232.681 0.743105 210.603 -0.589061 213.199 14.883C213.199 14.883 212.675 17.6181 215.161 18.8585C215.161 18.8585 215.2 17.7125 217.427 18.1032C218.219 18.2346 219.024 18.2734 219.826 18.2186C220.909 18.1439 221.938 17.7186 222.758 17.0071C222.758 17.0071 228.965 14.4424 231.378 4.29905C231.378 4.29905 233.164 2.08576 233.093 1.51671L229.366 3.10849C229.366 3.10849 230.641 5.79643 229.629 8.03069C229.629 8.03069 229.508 3.20552 228.792 3.31041C228.648 3.33401 226.857 4.24136 226.857 4.24136C226.857 4.24136 229.046 8.9223 227.394 12.3261C227.394 12.3261 228.021 6.55692 226.172 4.57964L223.55 6.11111C223.55 6.11111 226.109 10.9468 224.373 14.8935C224.373 14.8935 224.819 8.84101 222.997 6.48349L220.621 8.33751C220.621 8.33751 223.025 13.105 221.559 16.3777C221.559 16.3777 221.368 9.3314 220.107 8.79905C220.107 8.79905 218.027 10.6347 217.71 11.3847C217.71 11.3847 219.357 14.8463 218.334 16.6714C218.334 16.6714 217.707 11.9774 217.193 11.9511C217.193 11.9511 215.122 15.0613 214.906 17.1959C214.906 17.1959 214.996 14.0255 216.692 11.6574C216.692 11.6574 214.689 12.001 213.519 13.2991C213.519 13.2991 213.842 11.1015 217.204 10.9101C217.204 10.9101 218.916 8.54993 219.372 8.4057C219.372 8.4057 216.031 8.12772 214.004 9.02457C214.004 9.02457 215.788 6.95027 219.986 7.89433L222.333 5.97737C222.333 5.97737 217.933 5.37685 216.066 6.04031C216.066 6.04031 218.213 4.20464 222.965 5.54206L225.519 4.01583C225.519 4.01583 221.767 3.20814 219.532 3.49136C219.532 3.49136 221.893 2.21951 226.269 3.59888L228.105 2.77807C228.105 2.77807 225.357 2.23786 224.552 2.15132C223.747 2.06478 223.705 1.84451 223.705 1.84451C225.446 1.55417 227.233 1.75299 228.868 2.41881C228.868 2.41881 232.749 0.986986 232.681 0.743105Z" fill="#00BAFC"/>
<path opacity="0.1" d="M205.45 4.67932C205.45 4.67932 195.485 4.07617 196.652 11.0674C196.652 11.0674 196.419 12.3052 197.536 12.8664C197.536 12.8664 197.554 12.3419 198.561 12.5229C198.919 12.583 199.282 12.6007 199.644 12.5753C200.134 12.542 200.599 12.3496 200.969 12.0272C200.969 12.0272 203.775 10.8708 204.865 6.28684C204.865 6.28684 205.67 5.28509 205.639 5.0281L203.955 5.74663C203.955 5.74663 204.532 6.96341 204.079 7.97303C204.079 7.97303 204.024 5.79121 203.701 5.84366C203.636 5.84366 202.825 6.26323 202.825 6.26323C202.825 6.26323 203.816 8.37949 203.069 9.91883C203.069 9.91883 203.352 7.31219 202.516 6.41796L201.33 7.11027C201.33 7.11027 202.49 9.2947 201.703 11.0779C201.703 11.0779 201.905 8.34278 201.081 7.2781L200.009 8.12512C200.009 8.12512 201.094 10.2807 200.434 11.7571C200.434 11.7571 200.347 8.57355 199.775 8.33492C199.775 8.33492 198.837 9.16358 198.692 9.50449C198.692 9.50449 199.437 11.0779 198.976 11.8909C198.976 11.8909 198.692 9.76936 198.451 9.76149C198.451 9.76149 197.518 11.1671 197.418 12.1216C197.465 11.2308 197.743 10.3676 198.226 9.61726C197.685 9.71959 197.187 9.97754 196.791 10.3594C196.791 10.3594 196.938 9.36813 198.456 9.27897C198.456 9.27897 199.243 8.21428 199.437 8.14872C199.437 8.14872 197.927 8.02285 197.011 8.42932C197.011 8.42932 197.816 7.49051 199.715 7.90485L200.764 7.03946C200.764 7.03946 198.776 6.77722 197.932 7.06831C197.932 7.06831 198.902 6.23963 201.05 6.84278L202.204 6.1531C202.204 6.1531 200.51 5.78596 199.497 5.9197C199.497 5.9197 200.565 5.34278 202.542 5.96691L203.368 5.59715C203.368 5.59715 202.125 5.35065 201.761 5.31394C201.396 5.27722 201.378 5.17495 201.378 5.17495C202.165 5.04399 202.973 5.13479 203.712 5.43719C203.712 5.43719 205.482 4.78946 205.45 4.67932Z" fill="#00BAFC"/>
<path d="M240.26 171.368C246.083 171.368 250.804 170.57 250.804 169.585C250.804 168.6 246.083 167.802 240.26 167.802C234.436 167.802 229.715 168.6 229.715 169.585C229.715 170.57 234.436 171.368 240.26 171.368Z" fill="#00BAFC"/>
<path d="M244.621 166.669C245.102 166.277 245.452 165.747 245.625 165.15C245.756 164.55 245.499 163.839 244.922 163.606C244.277 163.359 243.587 163.808 243.066 164.259C242.544 164.71 241.943 165.227 241.261 165.13C241.613 164.81 241.876 164.406 242.024 163.955C242.173 163.504 242.203 163.023 242.111 162.557C242.081 162.364 242 162.183 241.875 162.032C241.516 161.65 240.868 161.812 240.438 162.114C239.074 163.074 238.694 164.928 238.686 166.593C238.55 165.992 238.665 165.366 238.663 164.757C238.66 164.149 238.49 163.446 237.968 163.123C237.646 162.95 237.284 162.865 236.919 162.877C236.308 162.853 235.623 162.916 235.206 163.365C234.682 163.921 234.821 164.854 235.272 165.463C235.723 166.071 236.413 166.462 237.047 166.884C237.555 167.187 237.988 167.6 238.314 168.093C238.353 168.162 238.385 168.235 238.408 168.31H242.253C243.112 167.873 243.909 167.32 244.621 166.669Z" fill="#00BAFC"/>
</g>
<defs>
<linearGradient id="paint0_linear" x1="212.022" y1="133.126" x2="212.022" y2="27.6278" gradientUnits="userSpaceOnUse">
<stop stop-color="#808080" stop-opacity="0.25"/>
<stop offset="0.54" stop-color="#808080" stop-opacity="0.12"/>
<stop offset="1" stop-color="#808080" stop-opacity="0.1"/>
</linearGradient>
<linearGradient id="paint1_linear" x1="10450.5" y1="65713.5" x2="23402.9" y2="65713.5" gradientUnits="userSpaceOnUse">
<stop stop-color="#808080" stop-opacity="0.25"/>
<stop offset="0.54" stop-color="#808080" stop-opacity="0.12"/>
<stop offset="1" stop-color="#808080" stop-opacity="0.1"/>
</linearGradient>
<clipPath id="clip0">
<rect width="300" height="171.115" fill="white" transform="translate(0 0.714233)"/>
</clipPath>
</defs>
</svg>
