<svg width="300" height="225" viewBox="0 0 300 225" fill="none" xmlns="http://www.w3.org/2000/svg">
<g clip-path="url(#clip0)">
<path d="M287.742 199.709L288.864 195.282C290.855 194.438 292.891 193.707 294.964 193.093L295.106 195.151L295.681 192.884C298.251 192.15 300 191.827 300 191.827C300 191.827 297.638 200.809 292.683 207.677L286.91 208.691L291.395 209.337C290.772 210.087 290.102 210.798 289.389 211.463C282.182 218.154 274.154 221.223 271.459 218.319C268.763 215.416 272.421 207.638 279.629 200.948C281.863 198.874 284.67 197.21 287.479 195.9L287.742 199.709Z" fill="#E6E6E6"/>
<path d="M277.065 194.901L275.738 190.53C277.005 188.779 278.371 187.101 279.828 185.504L281.013 187.192L280.333 184.955C282.154 182.998 283.484 181.817 283.484 181.817C283.484 181.817 286.105 190.727 285.414 199.167L280.996 203.019L285.169 201.255C285.023 202.219 284.817 203.173 284.551 204.112C281.839 213.564 276.554 220.341 272.746 219.249C268.937 218.156 268.049 209.608 270.76 200.155C271.601 197.225 273.143 194.349 274.872 191.776L277.065 194.901Z" fill="#E6E6E6"/>
<path d="M299.324 218.934H125V219.61H299.324V218.934Z" fill="#3F3D56"/>
<path d="M8.18179 88.5209C5.82224 85.0184 4.80792 78.7978 9.1961 75.7322C11.3724 74.2118 14.0143 74.3973 16.3016 75.0663C19.4652 75.9918 22.2786 77.8783 24.7122 79.989C27.5192 82.4236 29.9224 85.2777 32.292 88.1331C34.6314 90.9519 37.0022 93.7379 39.4891 96.4248C44.3904 101.718 49.6233 106.693 55.1564 111.322C60.5789 115.863 66.2815 120.059 72.2305 123.884C75.184 125.782 78.2006 127.583 81.2804 129.288C84.1398 130.931 87.0972 132.397 90.136 133.678C94.178 135.303 101.104 137.575 104.688 133.015C106.589 130.598 106.684 127.317 106.255 124.562C105.736 121.23 104.427 118.121 103.138 115.084C97.1425 100.958 91.0766 86.8663 85.0454 72.7578C83.6377 69.465 82.1881 66.1848 81.0188 62.7816C79.9241 59.5954 79.0128 56.2361 78.9912 52.766C78.9723 49.735 79.6308 46.3147 81.9365 43.9801C83.8487 42.0439 86.5278 41.403 89.0506 41.4177C95.2965 41.4541 101.165 44.6334 106.016 47.9843C112.043 52.1475 117.367 57.2048 123.37 61.3993C128.218 64.7862 133.919 67.8553 140.106 68.2439C142.478 68.3929 144.995 68.0765 147.156 66.7805C149.222 65.4838 150.726 63.4596 151.373 61.1078C152.183 58.3817 152.082 55.5021 151.652 52.8151C151.115 49.6686 150.14 46.6126 148.757 43.7359C145.832 37.4857 141.835 31.8846 138.393 25.9524C136.705 23.0431 135.057 20.0449 134.005 16.8C133.113 14.051 132.388 10.7972 133.269 7.81661C135.086 1.66695 142.472 3.981 146.218 5.75618C148.755 7.00276 151.201 8.42722 153.537 10.0189C154.04 10.3514 154.53 9.46927 154.029 9.13829C151.576 7.45914 148.997 5.97245 146.314 4.69155C144.031 3.6468 141.518 2.73545 138.899 2.78554C136.699 2.82761 134.482 3.74906 133.191 5.71716C131.663 8.04577 131.768 11.0564 132.179 13.5546C132.723 16.8583 134.021 19.9102 135.518 22.8141C137.094 25.8723 138.893 28.7965 140.702 31.7076C144.318 37.5247 148.278 43.4095 150.082 50.2007C151.343 54.9513 152.14 62.3713 147.006 65.7615C144.727 67.2665 141.934 67.4843 139.412 67.2008C136.364 66.8582 133.461 65.8452 130.75 64.5728C118.108 58.6393 109.686 46.319 96.2083 41.7628C91.6258 40.2137 85.2131 39.2246 81.1805 43.4137C79.0856 45.5898 78.2454 48.6111 78.0566 51.45C77.8306 54.8503 78.5404 58.1966 79.5051 61.3456C80.5752 64.6456 81.82 67.8865 83.2342 71.0544C84.7451 74.5946 86.2581 78.1339 87.773 81.6722L96.9566 103.155L101.519 113.829C102.912 117.086 104.405 120.36 105.131 123.892C105.725 126.783 105.894 130.762 103.347 133.088C101.324 134.936 98.3685 134.85 96.0005 134.421C92.9344 133.866 90.0498 132.652 87.3044 131.312C84.1378 129.767 81.0552 128.053 78.0288 126.27C71.7992 122.595 65.8195 118.512 60.1287 114.048C54.4159 109.573 48.9944 104.738 43.8974 99.5722C41.321 96.961 38.8314 94.2665 36.4286 91.4888C33.9524 88.6249 31.6271 85.6254 29.0625 82.8406C26.7428 80.3218 24.2033 77.9868 21.251 76.2103C18.7858 74.727 15.8716 73.4866 12.8397 73.5843C11.7703 73.6142 10.7191 73.8689 9.75455 74.3317C8.78998 74.7945 7.93362 75.4552 7.24114 76.2707C5.88426 77.9577 5.15108 80.0613 5.1654 82.2262C5.18103 84.6696 5.93501 87.0512 7.32839 89.0584C7.66547 89.5588 8.52036 89.0234 8.18179 88.5209V88.5209Z" fill="#E6E6E6"/>
<path d="M46.8292 7.02161H6.34963V42.9631H46.8292V7.02161Z" fill="#E6E6E6"/>
<path d="M46.8292 71.7163H6.34963V107.658H46.8292V71.7163Z" fill="#00BAFC"/>
<path d="M176.897 7.02161H136.417V42.9631H176.897V7.02161Z" fill="#00BAFC"/>
<path d="M176.897 71.7163H136.417V107.658H176.897V71.7163Z" fill="#E6E6E6"/>
<path d="M112.323 7.02161H71.843V42.9631H112.323V7.02161Z" fill="#00BAFC"/>
<path d="M112.323 71.7163H71.843V107.658H112.323V71.7163Z" fill="#00BAFC"/>
<path d="M71.9595 13.732C75.6911 13.732 78.7162 10.7069 78.7162 6.97526C78.7162 3.24361 75.6911 0.218506 71.9595 0.218506C68.2278 0.218506 65.2027 3.24361 65.2027 6.97526C65.2027 10.7069 68.2278 13.732 71.9595 13.732Z" fill="#3F3D56"/>
<path d="M137.162 13.732C140.894 13.732 143.919 10.7069 143.919 6.97526C143.919 3.24361 140.894 0.218506 137.162 0.218506C133.431 0.218506 130.405 3.24361 130.405 6.97526C130.405 10.7069 133.431 13.732 137.162 13.732Z" fill="#3F3D56"/>
<path d="M6.75676 78.5969C10.4884 78.5969 13.5135 75.5718 13.5135 71.8401C13.5135 68.1085 10.4884 65.0834 6.75676 65.0834C3.0251 65.0834 0 68.1085 0 71.8401C0 75.5718 3.0251 78.5969 6.75676 78.5969Z" fill="#3F3D56"/>
<path d="M71.9595 78.5969C75.6911 78.5969 78.7162 75.5718 78.7162 71.8401C78.7162 68.1085 75.6911 65.0834 71.9595 65.0834C68.2278 65.0834 65.2027 68.1085 65.2027 71.8401C65.2027 75.5718 68.2278 78.5969 71.9595 78.5969Z" fill="#3F3D56"/>
<path d="M229.493 215.468C229.493 215.468 220.05 216.194 221.019 219.584C221.987 222.974 229.493 222.49 229.493 222.49C229.493 222.49 235.305 222.005 238.452 222.974C241.6 223.943 245.232 222.974 245.474 221.279C245.716 219.584 243.779 218.373 243.779 218.373L242.569 215.952L229.493 215.468Z" fill="#2F2E41"/>
<path d="M204.675 139.801L203.706 143.675C203.706 143.675 199.348 152.634 204.675 152.634C210.002 152.634 208.065 144.402 208.065 144.402L208.549 140.528L204.675 139.801Z" fill="#9F616A"/>
<path d="M251.406 136.653L252.375 140.528C252.375 140.528 256.733 149.487 251.406 149.487C246.079 149.487 248.017 141.254 248.017 141.254L247.532 137.38L251.406 136.653Z" fill="#9F616A"/>
<path d="M226.225 70.7931C231.975 70.7931 236.636 66.1316 236.636 60.3813C236.636 54.6311 231.975 49.9696 226.225 49.9696C220.474 49.9696 215.813 54.6311 215.813 60.3813C215.813 66.1316 220.474 70.7931 226.225 70.7931Z" fill="#9F616A"/>
<path d="M223.077 68.3718C223.077 68.3718 224.287 73.9409 223.561 76.6044C222.835 79.2678 238.573 76.1201 238.573 76.1201C238.573 76.1201 233.004 66.919 233.246 66.6769L223.077 68.3718Z" fill="#9F616A"/>
<path d="M225.498 74.6673C225.498 74.6673 221.14 73.4566 219.687 74.9094C218.234 76.3622 209.759 80.4785 209.759 80.4785L215.571 116.072L240.753 110.503L245.111 76.8465C245.111 76.8465 238.245 72.8201 237.077 73.6226C235.91 74.4252 225.498 74.6673 225.498 74.6673Z" fill="#D0CDE1"/>
<path d="M211.697 80.7206L210.534 80.0973C210.534 80.0973 206.127 80.9627 206.37 84.3526C206.612 87.7424 207.58 106.629 207.58 106.629L203.706 140.77L210.728 141.98L217.75 113.409L211.697 80.7206Z" fill="#D0CDE1"/>
<path d="M244.385 77.5729L245.547 76.9496C245.547 76.9496 249.954 77.815 249.711 81.2049C249.469 84.5947 248.501 103.481 248.501 103.481L252.375 137.622L245.353 138.833L238.331 110.261L244.385 77.5729Z" fill="#D0CDE1"/>
<path d="M215.813 112.44L214.844 127.21L211.697 156.75L216.297 218.01L232.278 218.494L227.435 160.14L232.278 140.043L248.107 139.457C248.107 139.457 249.227 116.314 240.268 109.05L215.813 112.44Z" fill="#2F2E41"/>
<path d="M233.246 136.653L230.704 190.044L229.856 217.042L244.143 218.494L247.747 139.097L242.205 133.506L233.246 136.653Z" fill="#2F2E41"/>
<path d="M230.825 46.5797C230.825 46.5797 221.382 45.3691 218.718 49.9696C218.718 49.9696 217.992 53.3595 215.571 54.5701C213.149 55.7808 216.055 59.8971 216.781 61.1077C217.508 62.3184 219.445 69.3403 217.266 71.0352C215.086 72.7301 221.14 77.5728 221.14 77.5728C221.14 77.5728 224.045 81.447 221.624 84.3525C219.203 87.2581 224.772 88.2267 224.772 88.2267C224.772 88.2267 223.561 96.4592 225.74 94.28C225.74 94.28 226.709 112.924 235.91 101.302C245.111 89.6795 248.985 84.1104 245.111 79.5099C241.237 74.9093 244.142 70.7931 244.142 70.7931C244.142 70.7931 245.353 68.3718 242.69 64.7397C240.026 61.1077 240.026 46.5797 230.825 46.5797Z" fill="#2F2E41"/>
<path d="M217.145 216.921C217.145 216.921 207.701 217.647 208.67 221.037C209.638 224.427 217.145 223.943 217.145 223.943C217.145 223.943 222.956 223.458 226.103 224.427C229.251 225.395 232.883 224.427 233.125 222.732C233.367 221.037 231.43 219.826 231.43 219.826L230.22 217.405L217.145 216.921Z" fill="#2F2E41"/>
</g>
<defs>
<clipPath id="clip0">
<rect width="300" height="224.593" fill="white" transform="translate(0 0.218506)"/>
</clipPath>
</defs>
</svg>
